<svg xmlns="http://www.w3.org/2000/svg" width="295.677" height="108.209" viewBox="0 0 295.677 108.209">
    <g data-name="Group 15978">
        <path data-name="Path 17202" d="M952.765 663.809a6.905 6.905 0 0 1 3.282-9.218l7.207-3.424-55.9-26.788-56.067 26.794 7.175 3.415a6.91 6.91 0 0 1 3.272 9.221L847.424 657a6.445 6.445 0 0 1 .01-11.654l57.129-27.307a6.474 6.474 0 0 1 5.56-.009l57 27.316A6.446 6.446 0 0 1 967.1 657l-14.341 6.811z" transform="translate(-675.313 -617.409)" style="fill:#3da3c1"/>
        <path data-name="Path 17203" d="M909.258 743.294a4.78 4.78 0 0 1-4.1 0L847.19 715.84a6.442 6.442 0 0 1-.152-11.58L861.4 697a6.909 6.909 0 0 1-3.052 9.295l-7.326 3.7 56.19 26.609L963.4 710l-7.326-3.7a6.908 6.908 0 0 1-3.052-9.3l14.161 7.155a6.66 6.66 0 0 1 3.729 5.316 6.415 6.415 0 0 1-3.674 6.371L909.262 743.3z" transform="translate(-675.257 -635.546)" style="fill:#6ab380"/>
        <path data-name="Path 17204" d="M920.2 694.766v-26.409l12.532 6.334a6.908 6.908 0 0 0-3.051-9.295l-5.247-2.651 17.02-8.389a6.945 6.945 0 0 0-9.292-3.135l-11.962 5.9v-2.141a9.9 9.9 0 0 0-3.462-7.518 9.915 9.915 0 0 0-3.475 7.531v2.207l-12.9-6.108a6.946 6.946 0 0 0-9.243 3.282l17.813 8.432-5.133 2.594a6.908 6.908 0 0 0-3.056 9.3l12.51-6.319v26.373l-27.983-14.188v.037a12.582 12.582 0 0 0 6.9 11.219l16.874 8.555-11.539 5.762a6.949 6.949 0 0 0 9.31 3.075l9.9-4.958 9.7 4.948a6.95 6.95 0 0 0 9.333-3.011l-11.377-5.8 16.886-8.491a12.582 12.582 0 0 0 6.936-11.237z" transform="translate(-684.778 -624.256)" style="fill:#fff"/>
        <path data-name="Path 17205" d="M627.7 681.682a.725.725 0 1 0-.737-.725.72.72 0 0 0 .737.725" transform="translate(-625.917 -631.724)" style="fill:#fff"/>
        <path data-name="Path 17206" d="M630.26 681.682a.725.725 0 1 0 0-1.451.725.725 0 0 0 0 1.451" transform="translate(-626.505 -631.724)" style="fill:#fff"/>
        <path data-name="Path 17207" d="M628.508 688.305H650.4l.321-1.055c-.695-.312-1.008-1.005-1.3-2.1-.452-1.548-.917-2.172-2.389-2.2a3.269 3.269 0 0 0-2.007.725l.06.078a1.209 1.209 0 0 0 1.311.4 1.958 1.958 0 0 1 .562-.078c.9.059 1.048.371 1.395 1.57a3.287 3.287 0 0 0 .7 1.427h-18.478v-3.343a4.876 4.876 0 0 0-2.21-.55 2.5 2.5 0 0 0-2.752 2.565c0 1.57 1.151 2.567 2.895 2.567m-.235-4a2.284 2.284 0 0 1 1.1.252v2.516h-1.039c-.925 0-1.533-.45-1.533-1.367a1.337 1.337 0 0 1 1.472-1.4" transform="translate(-625.608 -632.344)" style="fill:#fff"/>
        <path data-name="Path 17208" d="M679.43 687.3a3.557 3.557 0 0 0 1.62.416H681.184a4.245 4.245 0 0 1 4.17-.008.513.513 0 0 0 .143.013h.009a4.02 4.02 0 0 0 2.753-1.048v.005-6.3a1.2 1.2 0 0 0-1.2 1.2v4.585a3.494 3.494 0 0 1-1.471.316h-.088a3.535 3.535 0 0 1-1.556-.32v-5.784a1.2 1.2 0 0 0-1.2 1.2v4.586a3.531 3.531 0 0 1-1.56.32 3.129 3.129 0 0 1-1.258-.229 2.458 2.458 0 0 0 .069-.642 2.559 2.559 0 1 0-5.118 0 2.606 2.606 0 0 0 .069.651 3.144 3.144 0 0 1-1.25.22 3.523 3.523 0 0 1-1.553-.32v-2.686h-1.2v2.7a1.737 1.737 0 0 1-1.017.312 1.818 1.818 0 0 1-1.018-.3v-2.254h-1.2v2.254a1.817 1.817 0 0 1-1.016.3 1.736 1.736 0 0 1-1.018-.312v-2.245h-1.2v2.221a3.56 3.56 0 0 1-1.471.326h-.103a3.607 3.607 0 0 1-1.564-.32v-5.784a1.2 1.2 0 0 0-1.2 1.2v4.778a.78.78 0 0 0 .483.826 4.739 4.739 0 0 0 2.157.535h.129a4.033 4.033 0 0 0 2.127-.542 2.756 2.756 0 0 0 1.675.542 2.651 2.651 0 0 0 1.625-.533 2.6 2.6 0 0 0 1.6.533 3.138 3.138 0 0 0 1.726-.5 4.271 4.271 0 0 0 1.9.5.706.706 0 0 0 .085.006h.05a3.579 3.579 0 0 0 1.735-.423 2.617 2.617 0 0 0 3.995 0m-3.373-1.689a1.37 1.37 0 1 1 2.734 0 1.37 1.37 0 0 1-1.381 1.46 1.349 1.349 0 0 1-1.353-1.46" transform="translate(-633.476 -631.757)" style="fill:#fff"/>
        <path data-name="Path 17209" d="M704.005 681.682a.725.725 0 1 0-.736-.725.719.719 0 0 0 .736.725" transform="translate(-643.304 -631.724)" style="fill:#fff"/>
        <path data-name="Path 17210" d="M706.564 681.682a.725.725 0 1 0 0-1.451.725.725 0 0 0 0 1.451" transform="translate(-643.892 -631.724)" style="fill:#fff"/>
        <path data-name="Path 17211" d="M704.811 688.372h11.17a3.851 3.851 0 0 0 1.777-.422 2.5 2.5 0 0 0 2.006.927 2.617 2.617 0 1 0-2.563-2.617 2.545 2.545 0 0 0 .069.643 3.394 3.394 0 0 1-1.3.229h-9.093v-3.342a4.875 4.875 0 0 0-2.21-.55 2.5 2.5 0 0 0-2.753 2.565c0 1.57 1.151 2.567 2.9 2.567m14.935-3.572a1.356 1.356 0 0 1 1.381 1.461 1.37 1.37 0 0 1-1.381 1.459 1.464 1.464 0 0 1 0-2.92m-15.169-.431a2.289 2.289 0 0 1 1.1.252v2.516h-1.039c-.925 0-1.534-.45-1.534-1.367a1.337 1.337 0 0 1 1.473-1.4" transform="translate(-642.995 -632.41)" style="fill:#fff"/>
        <path data-name="Path 17212" d="M730.915 687.177a4.737 4.737 0 0 0 2.152.535.856.856 0 0 0 .087 0h11.826a.8.8 0 0 0 .1.005h.009c.032 0 .062 0 .092-.005h.019a4 4 0 0 0 2.641-1.04v-6.3a1.2 1.2 0 0 0-1.2 1.2v4.586a3.5 3.5 0 0 1-1.446.315h-2.227a2.645 2.645 0 0 0 1.21-2.162c0-1.276-1-1.96-2.54-1.96a5.892 5.892 0 0 0-2.674.675l-.2.927 1.624 2.524H733.2a3.6 3.6 0 0 1-1.564-.32v-5.784a1.2 1.2 0 0 0-1.2 1.2v4.778a.779.779 0 0 0 .483.826m9.221-3.315a3.274 3.274 0 0 1 1.46-.344c.856 0 1.381.4 1.381 1.079a2.047 2.047 0 0 1-1.49 1.708z" transform="translate(-649.494 -631.757)" style="fill:#fff"/>
        <path data-name="Path 17213" d="M756.811 686.526v-6.147a1.2 1.2 0 0 0-1.2 1.2v6.146a1.2 1.2 0 0 0 1.2-1.2" transform="translate(-655.231 -631.758)" style="fill:#fff"/>
        <path data-name="Path 17214" d="M767.177 681.682a.725.725 0 1 0 0-1.451.725.725 0 0 0 0 1.451" transform="translate(-657.704 -631.724)" style="fill:#fff"/>
        <path data-name="Path 17215" d="M765.425 687.721h6.131a4.251 4.251 0 0 1 4.176-.007.946.946 0 0 0 .1.006h.032a4.215 4.215 0 0 0 2.149-.551 4.26 4.26 0 0 0 2.033.544.639.639 0 0 0 .08 0h16.501a4.023 4.023 0 0 0 2.753-1.047v-6.3a1.2 1.2 0 0 0-1.2 1.2v4.586a3.529 3.529 0 0 1-1.471.316h-1.4v-1.249a3.981 3.981 0 0 0-1.169-3.172 4.52 4.52 0 0 0-3.065-1.015 9.191 9.191 0 0 0-1.261.092 1 1 0 0 0 1.035 1h.194a3.351 3.351 0 0 1 2.2.712 2.848 2.848 0 0 1 .866 2.322v1.342h-1.643a1.983 1.983 0 0 0 .552-1.436 2.027 2.027 0 0 0-2.149-2.011 2 2 0 0 0-2.126 2.011 1.966 1.966 0 0 0 .544 1.428h-9.107a3.513 3.513 0 0 1-1.555-.322v-3.47a1.2 1.2 0 0 0-1.2 1.2v2.272a3.921 3.921 0 0 1-3.111 0V682.7a1.2 1.2 0 0 0-1.2 1.2v2.272a3.522 3.522 0 0 1-1.566.322h-4.053v-3.354a4.876 4.876 0 0 0-2.21-.55 2.5 2.5 0 0 0-2.752 2.565c0 1.571 1.151 2.567 2.895 2.567m25.456-3.6a1.015 1.015 0 0 1 1.04 1.088 1.151 1.151 0 0 1-1.04 1.276 1.166 1.166 0 0 1-1.04-1.276 1.013 1.013 0 0 1 1.04-1.088m-25.691-.4a2.289 2.289 0 0 1 1.1.253v2.516h-1.04c-.925 0-1.533-.45-1.533-1.367a1.337 1.337 0 0 1 1.473-1.4" transform="translate(-656.808 -631.76)" style="fill:#fff"/>
        <path data-name="Path 17216" d="M764.62 681.682a.725.725 0 1 0-.736-.725.719.719 0 0 0 .736.725" transform="translate(-657.116 -631.724)" style="fill:#fff"/>
        <path data-name="Path 17217" d="M777.776 680.687h-.576c-.434 0-.636-.184-.636-.454a.37.37 0 0 1 .382-.382.467.467 0 0 1 .323.12l.432-.464a1.2 1.2 0 0 0-.837-.34.907.907 0 0 0-.957.914.882.882 0 0 0 .229.605h-.483v.785h2.126z" transform="translate(-659.798 -631.482)" style="fill:#fff"/>
        <path data-name="Path 17218" d="M782.963 691.569a.723.723 0 1 0 .718-.725.71.71 0 0 0-.718.725" transform="translate(-661.464 -634.142)" style="fill:#fff"/>
        <path data-name="Path 17219" d="M780.394 691.569a.72.72 0 0 0 .736.711.718.718 0 1 0 0-1.436.718.718 0 0 0-.736.725" transform="translate(-660.878 -634.142)" style="fill:#fff"/>
        <path data-name="Path 17220" d="M814.093 686.526v-6.147a1.2 1.2 0 0 0-1.2 1.2v6.146a1.2 1.2 0 0 0 1.2-1.2" transform="translate(-668.284 -631.758)" style="fill:#fff"/>
        <path data-name="Path 17221" d="M629.547 696.449a.711.711 0 0 0 .714.726.725.725 0 1 0 0-1.451.713.713 0 0 0-.714.725" transform="translate(-626.505 -635.255)" style="fill:#fff"/>
        <path data-name="Path 17222" d="M626.966 696.449a.725.725 0 1 0 .737-.725.725.725 0 0 0-.737.725" transform="translate(-625.917 -635.255)" style="fill:#fff"/>
        <path data-name="Path 17223" d="M628.508 703.864h3.608a4.214 4.214 0 0 0 2.149-.551 4.268 4.268 0 0 0 2.034.544.81.81 0 0 0 .081.005h5.516a5.624 5.624 0 0 0 1.551-.211 4.105 4.105 0 0 0 1.2-.524v-4.3a1.2 1.2 0 0 0-1.2 1.2v2.336a4.128 4.128 0 0 1-1.564.262h-5.458a3.525 3.525 0 0 1-1.556-.321v-3.47a1.2 1.2 0 0 0-1.2 1.2v2.273a3.48 3.48 0 0 1-1.467.317h-1.63v-3.342a4.865 4.865 0 0 0-2.21-.551 2.5 2.5 0 0 0-2.752 2.566c0 1.57 1.151 2.566 2.895 2.566m-.235-4a2.284 2.284 0 0 1 1.1.253v2.516h-1.039c-.925 0-1.533-.45-1.533-1.367a1.336 1.336 0 0 1 1.472-1.4" transform="translate(-625.608 -635.94)" style="fill:#fff"/>
        <path data-name="Path 17224" d="M637.912 707.772a.7.7 0 0 0 .727-.711.716.716 0 0 0-.727-.725.718.718 0 1 0 0 1.436" transform="translate(-628.248 -637.673)" style="fill:#fff"/>
        <path data-name="Path 17225" d="M635.362 706.336a.718.718 0 1 0 0 1.436.718.718 0 0 0 0-1.436" transform="translate(-627.662 -637.673)" style="fill:#fff"/>
        <path data-name="Path 17226" d="M649.227 695.8a.73.73 0 1 0 0 1.459.716.716 0 0 0 .727-.724.725.725 0 0 0-.727-.735" transform="translate(-630.821 -635.272)" style="fill:#fff"/>
        <path data-name="Path 17227" d="M653.253 702.606a4.722 4.722 0 0 0 2.147.535 1.028 1.028 0 0 0 .107.006h4.655a8.147 8.147 0 0 0 2.615-.413 3.742 3.742 0 0 0 1.585.406c.019 0 .05 0 .084.005h2.573a3.839 3.839 0 0 0 1.777-.422 2.5 2.5 0 0 0 2.007.927 2.617 2.617 0 1 0-2.563-2.617 2.54 2.54 0 0 0 .069.642 3.38 3.38 0 0 1-1.3.23H664.4a2.424 2.424 0 0 1-1.086-.257v-.492c-.042-1.519-.718-1.968-2.513-2.482l-.625-.171 2.029-1.542a.965.965 0 0 0 .17-1.377l-3.631 2.8.124.428a.977.977 0 0 0 .682.67l.7.187c1.537.441 1.827.653 1.868 1.53v.381a4.863 4.863 0 0 1-1.827.33h-4.76a3.6 3.6 0 0 1-1.566-.321V695.8a1.2 1.2 0 0 0-1.2 1.2v4.779a.779.779 0 0 0 .482.826m17.531-3.029a1.354 1.354 0 0 1 1.381 1.459 1.37 1.37 0 0 1-1.381 1.46 1.464 1.464 0 0 1 0-2.919" transform="translate(-631.797 -635.225)" style="fill:#fff"/>
        <path data-name="Path 17228" d="M697.286 707.061a.716.716 0 0 0-.727-.725.718.718 0 1 0 .727.725" transform="translate(-641.611 -637.673)" style="fill:#fff"/>
        <path data-name="Path 17229" d="M694.727 707.061a.728.728 0 1 0-.718.711.714.714 0 0 0 .718-.711" transform="translate(-641.026 -637.673)" style="fill:#fff"/>
        <path data-name="Path 17230" d="M692.77 698.185a1.2 1.2 0 0 0-1.2 1.2v2.272a3.518 3.518 0 0 1-1.565.322h-4.051v-3.149a4.891 4.891 0 0 0-2.218-.55 2.5 2.5 0 0 0-2.765 2.482c0 1.451 1.076 2.456 2.9 2.456h.879c-.069 1-.584 1.469-1.744 1.469a5.149 5.149 0 0 1-.6-.041 1.117 1.117 0 0 0-1.238.9 5.541 5.541 0 0 0 1.794.294c1.726 0 2.858-.818 2.978-2.617h4.068a4.214 4.214 0 0 0 2.149-.551 4.259 4.259 0 0 0 2.039.544H700.976a4.026 4.026 0 0 0 2.753-1.046v-6.3a1.2 1.2 0 0 0-1.2 1.2v4.586a3.5 3.5 0 0 1-1.47.317h-.573a1 1 0 0 1-.626-.119 3.874 3.874 0 0 1-.848-1.781c-.451-1.588-.916-2.19-2.379-2.222a3.229 3.229 0 0 0-2.007.726l.041.055a1.279 1.279 0 0 0 1.362.419 1.831 1.831 0 0 1 .52-.07c.925.05 1.026.362 1.39 1.561a3.149 3.149 0 0 0 .705 1.436h-4.326a3.514 3.514 0 0 1-1.556-.322zm-8.018 3.792h-1.072c-.9 0-1.523-.454-1.523-1.29s.625-1.3 1.5-1.3a2.492 2.492 0 0 1 1.091.253z" transform="translate(-638.223 -635.288)" style="fill:#fff"/>
        <path data-name="Path 17231" d="M700.979 707.055a.732.732 0 0 0 .737.735.724.724 0 0 0 .727-.735.732.732 0 0 0-1.463 0" transform="translate(-642.782 -637.671)" style="fill:#fff"/>
        <path data-name="Path 17232" d="M714.287 702.019v-6.147a1.2 1.2 0 0 0-1.2 1.2v6.147a1.2 1.2 0 0 0 1.2-1.2" transform="translate(-645.541 -635.288)" style="fill:#fff"/>
        <path data-name="Path 17233" d="M724.638 698.149a.727.727 0 1 0 .737-.725.724.724 0 0 0-.737.725" transform="translate(-648.173 -635.642)" style="fill:#fff"/>
        <path data-name="Path 17234" d="M727.207 698.149a.714.714 0 0 0 .718.726.725.725 0 1 0 0-1.451.714.714 0 0 0-.718.725" transform="translate(-648.759 -635.642)" style="fill:#fff"/>
        <path data-name="Path 17235" d="M727.158 703.893a7.326 7.326 0 0 0 3.268-.615v-4.416a1.2 1.2 0 0 0-1.2 1.2v2.3a4.856 4.856 0 0 1-1.9.294h-4.073q-1.816 0-1.818-1.537a4.309 4.309 0 0 1 .193-1.2v-.005a1.156 1.156 0 0 0-1.353 1.02 5.21 5.21 0 0 0-.028.532c0 1.758 1.073 2.424 2.927 2.424z" transform="translate(-647.172 -635.97)" style="fill:#fff"/>
        <path data-name="Path 17236" d="M748.777 701.976H738.69a3.6 3.6 0 0 1-1.566-.321v-5.784a1.2 1.2 0 0 0-1.2 1.2v4.779a.779.779 0 0 0 .482.825 4.732 4.732 0 0 0 2.153.535.724.724 0 0 0 .086.005h10.138a3.838 3.838 0 0 0 1.777-.422 2.5 2.5 0 0 0 2.007.927 2.617 2.617 0 1 0-2.564-2.617 2.54 2.54 0 0 0 .069.642 3.383 3.383 0 0 1-1.3.23m3.774-2.336a1.354 1.354 0 0 1 1.381 1.459 1.37 1.37 0 0 1-1.381 1.46 1.464 1.464 0 0 1 0-2.919" transform="translate(-650.746 -635.287)" style="fill:#fff"/>
        <path data-name="Path 17237" d="M765.232 703.212h.879c-.069 1-.585 1.469-1.745 1.469a5.314 5.314 0 0 1-.6-.042 1.116 1.116 0 0 0-1.238.9 5.567 5.567 0 0 0 1.795.292c1.726 0 2.858-.816 2.977-2.616h1.551a4.271 4.271 0 0 1 4.184-.007v.007h9.49a3.59 3.59 0 0 0 1.734-.422 2.615 2.615 0 0 0 3.995 0 3.571 3.571 0 0 0 1.625.416h.132a4.019 4.019 0 0 0 2.753-1.047v.006-6.3a1.2 1.2 0 0 0-1.2 1.2v4.586a3.587 3.587 0 0 1-1.562.321 3.124 3.124 0 0 1-1.259-.23 2.448 2.448 0 0 0 .07-.642 2.56 2.56 0 1 0-5.118 0 2.584 2.584 0 0 0 .07.652 3.164 3.164 0 0 1-1.252.22h-4.628a2.65 2.65 0 0 0 1.211-2.162c0-1.276-1-1.96-2.541-1.96a5.894 5.894 0 0 0-2.674.674l-.2.927 1.625 2.525h-2.14a3.524 3.524 0 0 1-1.557-.321v-5.784a1.2 1.2 0 0 0-1.2 1.2v4.586a3.471 3.471 0 0 1-1.466.317h-1.632v-3.149a4.883 4.883 0 0 0-2.218-.551 2.5 2.5 0 0 0-2.766 2.484c0 1.45 1.077 2.455 2.9 2.455m21.005-3.571a1.354 1.354 0 0 1 1.381 1.46 1.37 1.37 0 0 1-1.381 1.459 1.464 1.464 0 0 1 0-2.919m-11.177-.286a3.278 3.278 0 0 1 1.461-.343c.856 0 1.381.395 1.381 1.079a2.046 2.046 0 0 1-1.491 1.707zm-10.04.033a2.5 2.5 0 0 1 1.091.253v2.336h-1.072c-.9 0-1.523-.455-1.523-1.289s.626-1.3 1.5-1.3" transform="translate(-656.762 -635.288)" style="fill:#fff"/>
        <path data-name="Path 17238" d="M804.386 703.217a1.2 1.2 0 0 0 1.2-1.2v-6.146a1.2 1.2 0 0 0-1.2 1.2z" transform="translate(-666.346 -635.288)" style="fill:#fff"/>
        <path data-name="Path 17239" d="M808.028 701.465c0 1.45 1.077 2.456 2.9 2.456h.879c-.069 1-.585 1.469-1.745 1.469a4.922 4.922 0 0 1-1.625-.28l-.211 1.138a5.543 5.543 0 0 0 1.794.294 2.662 2.662 0 0 0 2.987-2.97v-4.039a4.881 4.881 0 0 0-2.218-.552 2.5 2.5 0 0 0-2.766 2.484m2.692-1.368a2.5 2.5 0 0 1 1.091.252v2.337h-1.073c-.9 0-1.523-.455-1.523-1.289s.626-1.3 1.5-1.3" transform="translate(-667.176 -635.997)" style="fill:#fff"/>
        <path data-name="Path 17240" d="M629.678 717.972a2.758 2.758 0 0 1 1.165.252 1.059 1.059 0 0 0 1.22-.207h.009l.249-.257a3.95 3.95 0 0 0-2.638-.987 3.589 3.589 0 1 0-.074 7.17 4.633 4.633 0 0 0 2.987-1.064v-2.9h-1.869a1.048 1.048 0 0 0-1.049 1.046h1.689v1.184a2.868 2.868 0 0 1-1.758.519 2.347 2.347 0 0 1-2.356-2.369 2.376 2.376 0 0 1 2.425-2.391" transform="translate(-625.67 -640.051)" style="fill:#fff"/>
        <path data-name="Path 17241" d="M638.993 719.361a2.564 2.564 0 0 0-2.628 2.58 2.592 2.592 0 0 0 2.656 2.6 3.229 3.229 0 0 0 2.209-.86 1.2 1.2 0 0 0-1.252-.262 2.465 2.465 0 0 1-.916.161 1.4 1.4 0 0 1-1.478-1.253h4.036v-.377a2.54 2.54 0 0 0-2.628-2.588m1.45 2.212h-2.852a1.354 1.354 0 0 1 1.417-1.276 1.476 1.476 0 0 1 1.026.367 1.149 1.149 0 0 1 .41.9z" transform="translate(-628.058 -640.641)" style="fill:#fff"/>
        <path data-name="Path 17242" d="M648.012 719.367a3.426 3.426 0 0 0-2.057.725v-.629h-.009a1.206 1.206 0 0 0-1.206 1.2v2.571a1.206 1.206 0 0 0 1.206 1.2h.009v-3.466a2.391 2.391 0 0 1 1.629-.625 1.124 1.124 0 0 1 1.04 1.134v1.754a1.206 1.206 0 0 0 1.205 1.2v-3.3a1.656 1.656 0 0 0-1.818-1.771" transform="translate(-629.967 -640.642)" style="fill:#fff"/>
        <path data-name="Path 17243" d="M655.508 724.539a3.227 3.227 0 0 0 2.21-.859 1.193 1.193 0 0 0-1.252-.261 2.48 2.48 0 0 1-.915.16 1.4 1.4 0 0 1-1.478-1.254h4.037v-.376a2.629 2.629 0 0 0-5.256-.009 2.591 2.591 0 0 0 2.655 2.6m-.009-4.24a1.471 1.471 0 0 1 1.026.368 1.147 1.147 0 0 1 .409.9h-2.853a1.355 1.355 0 0 1 1.418-1.268" transform="translate(-631.816 -640.641)" style="fill:#fff"/>
        <path data-name="Path 17244" d="M663.653 720.544a1.162 1.162 0 0 0 .833-1.088v-.1a2.737 2.737 0 0 0-2.039 1.038v-.937h-.088a1.129 1.129 0 0 0-1.132 1.129v3.851h.087a1.13 1.13 0 0 0 1.133-1.129v-1.97a2.824 2.824 0 0 1 1.2-.794z" transform="translate(-633.724 -640.639)" style="fill:#fff"/>
        <path data-name="Path 17245" d="M670.918 721.23c0-1.184-.769-1.864-2.126-1.864a4.389 4.389 0 0 0-2.307.648.915.915 0 0 0 1.146.468 2.678 2.678 0 0 1 .879-.151c.788 0 1.2.349 1.2 1.015v.059h-1.7c-1.2 0-1.947.605-1.947 1.552s.718 1.583 1.868 1.583a2.725 2.725 0 0 0 1.777-.647v.546a1.21 1.21 0 0 0 1.211-1.207zm-1.211 2a2.573 2.573 0 0 1-1.418.418c-.644 0-1.026-.279-1.026-.766s.392-.767 1.059-.767h1.385z" transform="translate(-634.826 -640.642)" style="fill:#fff"/>
        <path data-name="Path 17246" d="M674.157 723.878a1.221 1.221 0 0 0 1.22-1.217v-5.755a1.22 1.22 0 0 0-1.22 1.216z" transform="translate(-636.67 -640.081)" style="fill:#fff"/>
        <path data-name="Path 17247" d="M686.639 723.878a.97.97 0 0 0 .9-1.35l-2.052-4.838a1.291 1.291 0 0 0-2.375 0l-2.044 4.838a.973.973 0 0 0 .9 1.35l.63-1.533H686l.631 1.533zm-3.6-2.607 1.256-3.057 1.256 3.057z" transform="translate(-638.227 -640.081)" style="fill:#fff"/>
        <path data-name="Path 17248" d="M696.323 723.249v-3.764h-.009a1.206 1.206 0 0 0-1.207 1.2v2.262a2.381 2.381 0 0 1-1.628.616 1.114 1.114 0 0 1-1.041-1.126v-2.947a1.205 1.205 0 0 0-1.2 1.2v2.1a1.656 1.656 0 0 0 1.817 1.771 3.367 3.367 0 0 0 2.057-.738v.638a1.221 1.221 0 0 0 1.22-1.217" transform="translate(-640.56 -640.669)" style="fill:#fff"/>
        <path data-name="Path 17249" d="M702.905 723.8a.846.846 0 0 0-.869-.679h-.06a.814.814 0 0 1-.87-.895v-2.19h.63a.785.785 0 0 0 .788-.785v-.179h-1.417v-1.382h-.373a.836.836 0 0 0-.837.836v.55a.787.787 0 0 0-.788.786v.178h.788v2.382a1.6 1.6 0 0 0 1.7 1.736 2.757 2.757 0 0 0 1.306-.349z" transform="translate(-642.356 -640.26)" style="fill:#fff"/>
        <path data-name="Path 17250" d="M708.711 718.8a3.429 3.429 0 0 0-2.058.725v-2.621h-.009a1.205 1.205 0 0 0-1.206 1.2v4.553a1.22 1.22 0 0 0 1.22 1.217v-3.466a2.39 2.39 0 0 1 1.629-.624 1.123 1.123 0 0 1 1.039 1.134v1.754a1.206 1.206 0 0 0 1.2 1.2v-3.3a1.656 1.656 0 0 0-1.817-1.772" transform="translate(-643.798 -640.081)" style="fill:#fff"/>
        <path data-name="Path 17251" d="M712.031 725.935z" transform="translate(-645.301 -642.138)" style="fill:#fff"/>
        <path data-name="Path 17252" d="M716.329 719.361a2.6 2.6 0 1 0 2.784 2.588 2.648 2.648 0 0 0-2.784-2.588m0 4.14a1.554 1.554 0 1 1 1.587-1.556 1.541 1.541 0 0 1-1.587 1.556" transform="translate(-645.649 -640.64)" style="fill:#fff"/>
        <path data-name="Path 17253" d="M723.586 720.392v-.937a1.22 1.22 0 0 0-1.22 1.216v3.764a1.22 1.22 0 0 0 1.22-1.216v-1.882a2.832 2.832 0 0 1 1.2-.794 1.161 1.161 0 0 0 .834-1.088v-.1a2.738 2.738 0 0 0-2.039 1.038" transform="translate(-647.656 -640.639)" style="fill:#fff"/>
        <path data-name="Path 17254" d="M729.062 723.265v-3.773a1.205 1.205 0 0 0-1.205 1.2v3.773a1.2 1.2 0 0 0 1.205-1.2" transform="translate(-648.907 -640.67)" style="fill:#fff"/>
        <path data-name="Path 17255" d="M728.434 718.281a.621.621 0 1 0-.667-.619.638.638 0 0 0 .667.619" transform="translate(-648.886 -640.112)" style="fill:#fff"/>
        <path data-name="Path 17256" d="M733.281 724.16a2.762 2.762 0 0 0 1.307-.348v-.005a.847.847 0 0 0-.87-.679h-.06a.814.814 0 0 1-.869-.9v-2.19h.631a.786.786 0 0 0 .787-.785v-.179h-1.418V717.7h-.419a.784.784 0 0 0-.786.784v.6a.787.787 0 0 0-.788.785v.179h.788v2.382a1.6 1.6 0 0 0 1.7 1.736" transform="translate(-649.576 -640.262)" style="fill:#fff"/>
        <path data-name="Path 17257" d="m739.388 724.94 2.209-5.467h-.511a1.087 1.087 0 0 0-1.012.7l-1.132 2.979-1.206-3a1.074 1.074 0 0 0-1-.68h-.548l2.218 5.141-.078.161c-.308.569-.6.8-1.068.8h-.106a1.081 1.081 0 0 0-1.063.662 3.989 3.989 0 0 0 1.33.27 2.056 2.056 0 0 0 1.98-1.556z" transform="translate(-650.782 -640.666)" style="fill:#fff"/>
        <path data-name="Path 17258" d="M749.781 717.67h.009a.867.867 0 0 0 .852-.684l.009-.041a3.761 3.761 0 0 0-1.118-.17 1.6 1.6 0 0 0-1.776 1.721v.368a.74.74 0 0 0-.742.739v.229h.742v3.2a.816.816 0 0 0 .819.817h.4v-4.012h.718a.74.74 0 0 0 .742-.738v-.23h-1.46v-.349a.766.766 0 0 1 .811-.845" transform="translate(-653.272 -640.052)" style="fill:#fff"/>
        <path data-name="Path 17259" d="M755.151 719.361a2.6 2.6 0 1 0 2.784 2.588 2.648 2.648 0 0 0-2.784-2.588m0 4.14a1.554 1.554 0 1 1 1.587-1.556 1.541 1.541 0 0 1-1.587 1.556" transform="translate(-654.496 -640.64)" style="fill:#fff"/>
        <path data-name="Path 17260" d="M762.414 723.307v-1.97a2.838 2.838 0 0 1 1.2-.794h.005a1.161 1.161 0 0 0 .833-1.088v-.1a2.738 2.738 0 0 0-2.039 1.038v-.937h-.088a1.13 1.13 0 0 0-1.132 1.13v3.851h.088a1.129 1.129 0 0 0 1.132-1.129" transform="translate(-656.503 -640.639)" style="fill:#fff"/>
        <path data-name="Path 17261" d="M772.791 722.817a5.285 5.285 0 0 1-1.74-.322 1.307 1.307 0 0 0-1.564.528 5.807 5.807 0 0 0 3.193.927c1.768 0 2.886-.757 2.886-2.152-.036-1.2-.759-1.584-2.305-2.011l-.76-.212c-1.1-.3-1.307-.459-1.307-.826 0-.564.506-.845 1.256-.845a4.75 4.75 0 0 1 1.423.252 1.284 1.284 0 0 0 1.514-.611l.01-.019a5.764 5.764 0 0 0-2.845-.748 3.477 3.477 0 0 0-2 .528 1.734 1.734 0 0 0-.768 1.533c.041 1.134.7 1.543 2.356 1.96l.787.2c1 .249 1.27.391 1.27.869 0 .647-.562.945-1.409.945" transform="translate(-658.393 -640.053)" style="fill:#fff"/>
        <path data-name="Path 17262" d="M782.737 720.571v2.387a2.376 2.376 0 0 1-1.629.615 1.112 1.112 0 0 1-1.04-1.125v-2.956h-.125a1.079 1.079 0 0 0-1.081 1.079v2.229a1.656 1.656 0 0 0 1.818 1.771 3.364 3.364 0 0 0 2.057-.739v.638h.134a1.079 1.079 0 0 0 1.082-1.078v-3.9h-.134a1.078 1.078 0 0 0-1.082 1.079" transform="translate(-660.53 -640.671)" style="fill:#fff"/>
        <path data-name="Path 17263" d="M789.827 720.529a1.1 1.1 0 0 0 .8-1.042v-.137a2.736 2.736 0 0 0-2.039 1.038v-.937h-.134a1.078 1.078 0 0 0-1.081 1.079v3.9h.133a1.078 1.078 0 0 0 1.081-1.079v-2.015a2.808 2.808 0 0 1 1.239-.8z" transform="translate(-662.469 -640.638)" style="fill:#fff"/>
        <path data-name="Path 17264" d="M797.809 719.49h-.561a1.078 1.078 0 0 0-1.008.683l-1.215 3.081-1.228-3.085a1.089 1.089 0 0 0-1.008-.683h-.561l2.039 4.979h1.519l2.029-4.979z" transform="translate(-663.575 -640.669)" style="fill:#fff"/>
        <path data-name="Path 17265" d="M806.908 723.206z" transform="translate(-666.92 -641.516)" style="fill:#fff"/>
        <path data-name="Path 17266" d="M802.728 719.361a2.563 2.563 0 0 0-2.628 2.58 2.591 2.591 0 0 0 2.655 2.6 3.23 3.23 0 0 0 2.21-.86l-.668-.628a2.088 2.088 0 0 1-1.5.527 1.4 1.4 0 0 1-1.478-1.253h4.032v-.377a2.54 2.54 0 0 0-2.628-2.588m1.455 2.212h-2.848a1.354 1.354 0 0 1 1.417-1.276 1.478 1.478 0 0 1 1.026.367 1.15 1.15 0 0 1 .409.9z" transform="translate(-665.369 -640.641)" style="fill:#fff"/>
        <path data-name="Path 17267" d="M812.959 719.474h-.511a1.087 1.087 0 0 0-1.013.7l-1.132 2.979-1.206-3a1.073 1.073 0 0 0-1-.679h-.548l2.219 5.141-.079.16c-.308.569-.6.8-1.068.8h-.105a1.081 1.081 0 0 0-1.063.662 3.956 3.956 0 0 0 1.33.271 2.056 2.056 0 0 0 1.979-1.556l-.009-.009z" transform="translate(-667.044 -640.667)" style="fill:#fff"/>
        <path data-name="Path 17268" d="M628.336 734.157a4.39 4.39 0 0 0-2.306.648.915.915 0 0 0 1.146.468 2.653 2.653 0 0 1 .879-.151c.787 0 1.2.348 1.2 1.014v.06h-1.7c-1.2 0-1.947.605-1.947 1.551s.718 1.583 1.869 1.583a2.723 2.723 0 0 0 1.777-.647v.546h.3a.909.909 0 0 0 .912-.909v-2.3c0-1.184-.768-1.864-2.126-1.864m.916 3.865a2.574 2.574 0 0 1-1.418.418c-.644 0-1.026-.28-1.026-.766s.391-.768 1.059-.768h1.385z" transform="translate(-625.607 -644.012)" style="fill:#fff"/>
        <path data-name="Path 17269" d="M636.979 734.158a3.427 3.427 0 0 0-2.057.725v-.628h-.009a1.205 1.205 0 0 0-1.206 1.2v2.57a1.206 1.206 0 0 0 1.206 1.2h.009v-3.465a2.389 2.389 0 0 1 1.629-.625 1.124 1.124 0 0 1 1.04 1.134v1.753a1.205 1.205 0 0 0 1.205 1.2v-3.3a1.656 1.656 0 0 0-1.818-1.772" transform="translate(-627.453 -644.013)" style="fill:#fff"/>
        <path data-name="Path 17270" d="M645.871 732.905v1.363a2.153 2.153 0 0 0-1.638-.679 2.6 2.6 0 0 0 0 5.179 2.171 2.171 0 0 0 1.638-.689v.587a1.206 1.206 0 0 0 1.206-1.2V731.7a1.205 1.205 0 0 0-1.206 1.2m0 4.15a1.621 1.621 0 0 1-1.39.679 1.38 1.38 0 0 1-1.049-.441 1.588 1.588 0 0 1-.41-1.115 1.49 1.49 0 0 1 1.459-1.552 1.627 1.627 0 0 1 1.39.68z" transform="translate(-629.303 -643.453)" style="fill:#fff"/>
        <path data-name="Path 17271" d="M657.5 735.821h1.689v1.185a2.866 2.866 0 0 1-1.757.518 2.347 2.347 0 0 1-2.357-2.368 2.375 2.375 0 0 1 2.425-2.391 2.739 2.739 0 0 1 1.164.252 1.06 1.06 0 0 0 1.219-.207h.009l.25-.257a3.951 3.951 0 0 0-2.638-.987 3.589 3.589 0 1 0-.073 7.17 4.622 4.622 0 0 0 2.987-1.066v-2.9h-1.869a1.047 1.047 0 0 0-1.049 1.046" transform="translate(-632.01 -643.422)" style="fill:#fff"/>
        <path data-name="Path 17272" d="M666.812 734.152a2.563 2.563 0 0 0-2.627 2.58 2.59 2.59 0 0 0 2.655 2.6 3.227 3.227 0 0 0 2.209-.859 1.2 1.2 0 0 0-1.252-.262 2.464 2.464 0 0 1-.916.161 1.4 1.4 0 0 1-1.477-1.253h4.036v-.377a2.54 2.54 0 0 0-2.628-2.588m1.451 2.212h-2.853a1.353 1.353 0 0 1 1.418-1.276 1.475 1.475 0 0 1 1.025.367 1.151 1.151 0 0 1 .41.9z" transform="translate(-634.398 -644.011)" style="fill:#fff"/>
        <path data-name="Path 17273" d="M675.039 734.146a2.6 2.6 0 1 0 2.784 2.588 2.648 2.648 0 0 0-2.784-2.588m0 4.14a1.541 1.541 0 0 1-1.57-1.557 1.579 1.579 0 0 1 3.157 0 1.543 1.543 0 0 1-1.588 1.557" transform="translate(-636.241 -644.01)" style="fill:#fff"/>
        <path data-name="Path 17274" d="m683.327 736.294-.557-.147c-.692-.188-.862-.3-.862-.588 0-.367.273-.545.82-.545a3.271 3.271 0 0 1 .971.16.937.937 0 0 0 1.1-.477 4.018 4.018 0 0 0-2.049-.547c-1.246 0-2.006.57-2.006 1.524a1.064 1.064 0 0 0 .359.845 3.558 3.558 0 0 0 1.29.569l.631.171c.625.188.778.3.778.587 0 .409-.3.62-.908.62a3.706 3.706 0 0 1-1.219-.225.935.935 0 0 0-1.146.422 4.259 4.259 0 0 0 2.328.666c1.321 0 2.09-.578 2.09-1.574 0-.748-.45-1.134-1.619-1.455" transform="translate(-638.122 -644.01)" style="fill:#fff"/>
        <path data-name="Path 17275" d="M690.748 734.14a2.163 2.163 0 0 0-1.638.679v-.579a1.221 1.221 0 0 0-1.22 1.217v5.705a1.22 1.22 0 0 0 1.22-1.216v-1.313a2.155 2.155 0 0 0 1.638.688 2.6 2.6 0 0 0 0-5.177m.8 3.708a1.378 1.378 0 0 1-1.049.441 1.625 1.625 0 0 1-1.39-.68v-1.754a1.621 1.621 0 0 1 1.39-.679 1.356 1.356 0 0 1 1.049.45 1.55 1.55 0 0 1 .409 1.106 1.586 1.586 0 0 1-.409 1.116" transform="translate(-639.799 -644.008)" style="fill:#fff"/>
        <path data-name="Path 17276" d="M698.737 734.157a4.39 4.39 0 0 0-2.306.648.915.915 0 0 0 1.146.468 2.655 2.655 0 0 1 .879-.151c.788 0 1.2.348 1.2 1.014v.06h-1.7c-1.2 0-1.947.605-1.947 1.551s.718 1.583 1.868 1.583a2.725 2.725 0 0 0 1.777-.647v.546h.3a.91.91 0 0 0 .912-.909v-2.3c0-1.184-.769-1.864-2.126-1.864m.916 3.865a2.574 2.574 0 0 1-1.418.418c-.644 0-1.026-.28-1.026-.766s.392-.768 1.058-.768h1.385z" transform="translate(-641.65 -644.012)" style="fill:#fff"/>
        <path data-name="Path 17277" d="M706.441 737.912h-.1a.813.813 0 0 1-.869-.895v-2.19h.63a.786.786 0 0 0 .788-.785v-.178h-1.418v-1.381h-.419a.786.786 0 0 0-.788.784v.6a.785.785 0 0 0-.787.784v.179h.787v2.382a1.6 1.6 0 0 0 1.7 1.736 2.76 2.76 0 0 0 1.307-.35l-.009-.042a.784.784 0 0 0-.819-.638" transform="translate(-643.352 -643.631)" style="fill:#fff"/>
        <path data-name="Path 17278" d="M709.933 735.485v3.773a1.206 1.206 0 0 0 1.206-1.2v-3.773a1.205 1.205 0 0 0-1.206 1.2" transform="translate(-644.823 -644.041)" style="fill:#fff"/>
        <path data-name="Path 17279" d="M710.511 731.833a.621.621 0 1 0 .658.62.64.64 0 0 0-.658-.62" transform="translate(-644.802 -643.483)" style="fill:#fff"/>
        <path data-name="Path 17280" d="M715.875 734.157a4.388 4.388 0 0 0-2.306.648.916.916 0 0 0 1.146.468 2.653 2.653 0 0 1 .879-.151c.788 0 1.2.348 1.2 1.014v.06h-1.7c-1.2 0-1.947.605-1.947 1.551s.718 1.583 1.868 1.583a2.725 2.725 0 0 0 1.777-.647v.546h.3a.909.909 0 0 0 .911-.909v-2.3c0-1.184-.768-1.864-2.126-1.864m.917 3.865a2.579 2.579 0 0 1-1.418.418c-.644 0-1.026-.28-1.026-.766s.392-.768 1.06-.768h1.385z" transform="translate(-645.555 -644.012)" style="fill:#fff"/>
        <path data-name="Path 17281" d="M721.246 732.913v5.756a1.221 1.221 0 0 0 1.22-1.216V731.7a1.221 1.221 0 0 0-1.22 1.217" transform="translate(-647.4 -643.451)" style="fill:#fff"/>
        <path data-name="Path 17282" d="M728.226 732.991v5.678a1.294 1.294 0 0 0 1.3-1.294V731.7a1.3 1.3 0 0 0-1.3 1.295" transform="translate(-648.991 -643.451)" style="fill:#fff"/>
        <path data-name="Path 17283" d="M735.361 734.158a3.429 3.429 0 0 0-2.058.725v-.628h-.009a1.2 1.2 0 0 0-1.205 1.2v2.57a1.205 1.205 0 0 0 1.205 1.2h.009v-3.465a2.392 2.392 0 0 1 1.63-.625 1.123 1.123 0 0 1 1.039 1.134v1.753a1.206 1.206 0 0 0 1.206 1.2v-3.3a1.656 1.656 0 0 0-1.818-1.772" transform="translate(-649.871 -644.013)" style="fill:#fff"/>
        <path data-name="Path 17284" d="M740.591 733.287v.368a.739.739 0 0 0-.741.739v.229h.741v3.328a.688.688 0 0 0 .69.688h.53v-4.011h.718a.739.739 0 0 0 .741-.739v-.229h-1.463v-.349a.766.766 0 0 1 .809-.845h.074a.747.747 0 0 0 .764-.579l.032-.151a3.79 3.79 0 0 0-1.119-.169 1.6 1.6 0 0 0-1.776 1.721" transform="translate(-651.64 -643.422)" style="fill:#fff"/>
        <path data-name="Path 17285" d="M747.986 734.146a2.6 2.6 0 1 0 2.784 2.588 2.648 2.648 0 0 0-2.784-2.588m0 4.14a1.541 1.541 0 0 1-1.57-1.557 1.579 1.579 0 0 1 3.157 0 1.543 1.543 0 0 1-1.587 1.557" transform="translate(-652.863 -644.01)" style="fill:#fff"/>
        <path data-name="Path 17286" d="M755.249 735.183v-.937h-.088a1.13 1.13 0 0 0-1.132 1.13v3.851h.088a1.129 1.129 0 0 0 1.132-1.129v-1.97a2.83 2.83 0 0 1 1.2-.794h.006a1.162 1.162 0 0 0 .833-1.088v-.1a2.737 2.737 0 0 0-2.039 1.038" transform="translate(-654.871 -644.01)" style="fill:#fff"/>
        <path data-name="Path 17287" d="M766.187 734.146v.009a3.049 3.049 0 0 0-2.108.808 1.578 1.578 0 0 0-1.5-.808 2.909 2.909 0 0 0-1.938.776v-.68a1.221 1.221 0 0 0-1.22 1.216v2.561a1.206 1.206 0 0 0 1.206 1.2h.009v-3.557a2.088 2.088 0 0 1 1.408-.537 1 1 0 0 1 1.04 1.134v1.753a1.205 1.205 0 0 0 1.206 1.2v-2.859a3.059 3.059 0 0 0-.069-.7 2.291 2.291 0 0 1 1.486-.537.993.993 0 0 1 1.031 1.134v1.753a1.205 1.205 0 0 0 1.205 1.2h.01v-3.3a1.644 1.644 0 0 0-1.776-1.772" transform="translate(-656.101 -644.01)" style="fill:#fff"/>
        <path data-name="Path 17288" d="M774.666 734.157a4.388 4.388 0 0 0-2.306.648.914.914 0 0 0 1.146.468 2.654 2.654 0 0 1 .879-.151c.788 0 1.2.348 1.2 1.014v.06h-1.7c-1.2 0-1.947.605-1.947 1.551s.718 1.583 1.869 1.583a2.722 2.722 0 0 0 1.777-.647v.546h.3a.909.909 0 0 0 .912-.909v-2.3c0-1.184-.768-1.864-2.126-1.864m.915 3.865a2.572 2.572 0 0 1-1.417.418c-.644 0-1.026-.28-1.026-.766s.392-.768 1.059-.768h1.385z" transform="translate(-658.951 -644.012)" style="fill:#fff"/>
        <path data-name="Path 17289" d="M782.327 737.912h-.06a.814.814 0 0 1-.87-.895v-2.19h.631a.786.786 0 0 0 .787-.785v-.178H781.4v-1.381h-.418a.785.785 0 0 0-.787.784v.6a.787.787 0 0 0-.788.784v.179h.788v2.382a1.6 1.6 0 0 0 1.7 1.736 2.75 2.75 0 0 0 1.307-.35.846.846 0 0 0-.869-.68" transform="translate(-660.653 -643.631)" style="fill:#fff"/>
        <path data-name="Path 17290" d="M786.438 731.833a.621.621 0 1 0 .658.62.64.64 0 0 0-.658-.62" transform="translate(-662.104 -643.483)" style="fill:#fff"/>
        <path data-name="Path 17291" d="M785.86 735.485v3.773a1.205 1.205 0 0 0 1.205-1.2v-3.773a1.2 1.2 0 0 0-1.205 1.2" transform="translate(-662.124 -644.041)" style="fill:#fff"/>
        <path data-name="Path 17292" d="M791.911 734.146a2.6 2.6 0 1 0 2.784 2.588 2.648 2.648 0 0 0-2.784-2.588m0 4.14a1.554 1.554 0 1 1 1.587-1.557 1.541 1.541 0 0 1-1.587 1.557" transform="translate(-662.872 -644.01)" style="fill:#fff"/>
        <path data-name="Path 17293" d="M801.221 734.158a3.43 3.43 0 0 0-2.058.725v-.628h-.009a1.2 1.2 0 0 0-1.206 1.2v2.57a1.206 1.206 0 0 0 1.206 1.2h.009v-3.465a2.394 2.394 0 0 1 1.631-.625 1.123 1.123 0 0 1 1.039 1.134v1.753a1.206 1.206 0 0 0 1.205 1.2v-3.3a1.656 1.656 0 0 0-1.817-1.772" transform="translate(-664.878 -644.013)" style="fill:#fff"/>
        <path data-name="Path 17294" d="M631.833 635.706a2.545 2.545 0 1 0-2.684-2.54 2.576 2.576 0 0 0 2.684 2.54" transform="translate(-626.414 -620.42)" style="fill:#fff"/>
        <path data-name="Path 17295" d="M639.851 635.706a2.543 2.543 0 1 0 0-5.082 2.542 2.542 0 1 0 0 5.082" transform="translate(-628.258 -620.42)" style="fill:#fff"/>
        <path data-name="Path 17296" d="M658.732 664.116a2.526 2.526 0 1 0 0 5.05 2.528 2.528 0 1 0 0-5.05" transform="translate(-632.561 -628.052)" style="fill:#fff"/>
        <path data-name="Path 17297" d="M650.713 664.116a2.526 2.526 0 1 0 2.613 2.541 2.572 2.572 0 0 0-2.613-2.541" transform="translate(-630.717 -628.052)" style="fill:#fff"/>
        <path data-name="Path 17298" d="M655.023 651.309a2.51 2.51 0 0 1-.252.09 8.145 8.145 0 0 1-4.933-.292l-.019-.009V640.2h-.806a3.5 3.5 0 0 0-3.567 3.424v7.476a7.251 7.251 0 0 1-4.207 1.13h-.588v.108a5.834 5.834 0 0 0-.025-.108v-10.047c-1.912-1.024-2.91-1.941-6-1.941-6.03 0-8.979 3.016-8.979 8.521s3.134 7.805 9.494 7.805h6.132c2.867 0 3.986-.638 6.341-1.944a7.668 7.668 0 0 0 1.618.859 11.479 11.479 0 0 0 7.8-.156l.029-.013a14.586 14.586 0 0 0 2.334-1.321V640.2h-.811a3.5 3.5 0 0 0-3.567 3.424zm-18.772.919h-1.734c-3.382 0-4.53-.738-4.53-3.844 0-3.211 1.221-4.189 4.31-4.189 1.507 0 1.424.518 1.954.882z" transform="translate(-625.616 -622.602)" style="fill:#fff"/>
        <path data-name="Path 17299" d="M665.567 630.9a2.56 2.56 0 1 0 2.648 2.575 2.6 2.6 0 0 0-2.648-2.575" transform="translate(-634.102 -620.483)" style="fill:#fff"/>
        <path data-name="Path 17300" d="M709.673 638.728c-5.4 0-7.791 2.93-7.791 8.223a8.688 8.688 0 0 0 .254 2.255c-.1.043-.212.086-.322.125a5.154 5.154 0 0 1-3.968-.085c-.1-.047-.194-.1-.282-.145v-1.728c-.145-5.327-.893-5.4-7.435-7.2l-2.284-.6 5.578-4.144a3.333 3.333 0 0 0 .6-4.854l-11.394 7.62.992 4.308 4.488 1.163c5.589 1.555 4.942.776 5.086 3.848v1.34a18.119 18.119 0 0 1-6.651 1.163h-.7a16.22 16.22 0 0 1-6.248-1.129V630.51h-.81a3.5 3.5 0 0 0-3.568 3.424v15.626a2.736 2.736 0 0 0 1.766 2.9 20.075 20.075 0 0 0 5.788 1.671 19.482 19.482 0 0 0 3.037.235h.259a30.657 30.657 0 0 0 9.52-1.446q.6.294 1.226.531l.028.011a8.069 8.069 0 0 0 5.562.065l.024-.008a15.408 15.408 0 0 0 1.482-.637c1.73 2.083 2.794 2.294 5.771 2.294 5.405 0 7.75-2.926 7.75-8.219s-2.345-8.223-7.75-8.223m-.075 12.384c-2.942 0-3.377-1.2-3.377-4.16s.435-4.164 3.377-4.164c3.052 0 3.488 1.2 3.488 4.164s-.435 4.16-3.488 4.16" transform="translate(-636.91 -620.394)" style="fill:#fff"/>
        <path data-name="Path 17301" d="M767.678 664.117a2.525 2.525 0 1 0 0 5.047 2.526 2.526 0 1 0 0-5.047" transform="translate(-657.386 -628.052)" style="fill:#fff"/>
        <path data-name="Path 17302" d="M759.66 664.117a2.525 2.525 0 1 0 2.611 2.54 2.572 2.572 0 0 0-2.611-2.54" transform="translate(-655.542 -628.052)" style="fill:#fff"/>
        <path data-name="Path 17303" d="M783.314 664.117a2.572 2.572 0 0 0-2.684 2.54 2.667 2.667 0 0 0 5.331 0 2.563 2.563 0 0 0-2.647-2.54" transform="translate(-660.932 -628.052)" style="fill:#fff"/>
        <path data-name="Path 17304" d="M783.284 648.89s-.03 1.112-.723 1.129h-1.695a8.4 8.4 0 0 1-2.861-4.144c-1.654-5.576-3.345-7.693-8.675-7.8a13.783 13.783 0 0 0-6.13 1.425l1.129 1.04a3.584 3.584 0 0 0 3.621 1.782 6.842 6.842 0 0 1 1.086-.06c2.624.056 3.751.316 5.074 4.515a7.348 7.348 0 0 0 1.987 3.237h-10.853a13.2 13.2 0 0 1-5.661-1.129v-10.9h-.808a3.5 3.5 0 0 0-3.567 3.424v7.472a11.039 11.039 0 0 1-5.2 1.129h-.612v-10.09c-2.684-1.306-3.88-1.941-6.564-1.941-6.14 0-9.016 3.529-9.016 8.717 0 5.081 2.876 7.656 9.53 7.656h1.675c-.184 2.5-1.832 3.539-4.591 3.737a4.416 4.416 0 0 0-4.182 3.9 19.98 19.98 0 0 0 2.266.1c6.287 0 10.4-1.426 10.846-7.742H750.278a14.007 14.007 0 0 0 7.1-1.934 16 16 0 0 0 7.6 1.934H782.6c3.339 0 4.373-1.036 4.837-2.642a6.271 6.271 0 0 0 .223-1.743v-19.454a4.29 4.29 0 0 0-4.375 4.2zm-38.265 1.129h-2.374c-3.271 0-4.494-.7-4.494-3.562 0-2.929 1.222-4.552 4.42-4.552a3.183 3.183 0 0 1 2.447.883z" transform="translate(-650.264 -620.394)" style="fill:#fff"/>
        <path data-name="Path 17305" d="M808.96 634.708v19.652a4.291 4.291 0 0 0 4.375-4.2v-19.652a4.29 4.29 0 0 0-4.375 4.2" transform="translate(-667.388 -620.394)" style="fill:#fff"/>
    </g>
</svg>
