<svg xmlns="http://www.w3.org/2000/svg" width="469.702" height="171.898" viewBox="0 0 469.702 171.898">
  <g id="Group_15978" data-name="Group 15978" transform="translate(-1639 194)">
    <path id="Path_17202" data-name="Path 17202" d="M1016.934,691.119h0a10.969,10.969,0,0,1,5.213-14.643l11.449-5.44-88.8-42.555-89.067,42.563,11.4,5.425a10.977,10.977,0,0,1,5.2,14.649L849.594,680.3a10.239,10.239,0,0,1,.016-18.514l90.753-43.378a10.286,10.286,0,0,1,8.833-.015l90.542,43.393a10.24,10.24,0,0,1-.028,18.508l-22.782,10.82Z" transform="translate(1062.816 -811.409)" fill="#3da3c1"/>
    <path id="Path_17203" data-name="Path 17203" d="M947.964,770.54a7.593,7.593,0,0,1-6.507,0l-92.092-43.613a10.233,10.233,0,0,1-.242-18.4L871.935,697a10.975,10.975,0,0,1-4.849,14.766l-11.638,5.885,89.262,42.27,89.263-42.27-11.638-5.885A10.975,10.975,0,0,1,1017.486,697l22.5,11.367a10.58,10.58,0,0,1,5.923,8.445,10.19,10.19,0,0,1-5.836,10.121l-92.1,43.613Z" transform="translate(1062.761 -793.375)" fill="#6ab380"/>
    <path id="Path_17204" data-name="Path 17204" d="M940.749,722.61V680.658l19.908,10.062a10.974,10.974,0,0,0-4.847-14.766l-8.336-4.211,27.038-13.327a11.032,11.032,0,0,0-14.761-4.98l-19,9.366v-3.4a15.728,15.728,0,0,0-5.5-11.943,15.749,15.749,0,0,0-5.52,11.964v3.519l-20.492-9.7a11.034,11.034,0,0,0-14.682,5.214l28.3,13.394-8.146,4.113a10.973,10.973,0,0,0-4.855,14.767l.006-.007,19.873-10.038v41.9l-44.452-22.538v.059a19.987,19.987,0,0,0,10.959,17.822l26.806,13.59-18.331,9.153a11.039,11.039,0,0,0,14.79,4.885l15.735-7.876,15.4,7.861h-.007a11.04,11.04,0,0,0,14.827-4.784l-18.073-9.218,26.825-13.489a19.988,19.988,0,0,0,11.018-17.85Z" transform="translate(1072.229 -804.6)" fill="#002228"/>
    <path id="Path_17205" data-name="Path 17205" d="M628.136,682.536a1.152,1.152,0,1,0-1.17-1.152,1.143,1.143,0,0,0,1.17,1.152" transform="translate(1013.701 -797.175)" fill="#002228"/>
    <path id="Path_17206" data-name="Path 17206" d="M630.68,682.536a1.152,1.152,0,1,0,0-2.3,1.152,1.152,0,0,0,0,2.3" transform="translate(1014.286 -797.175)" fill="#002228"/>
    <path id="Path_17207" data-name="Path 17207" d="M630.211,691.458H655.8c.042,0,.085.007.154.007h9.03l.51-1.677c-1.1-.5-1.6-1.6-2.068-3.34-.718-2.458-1.456-3.45-3.8-3.5a5.194,5.194,0,0,0-3.188,1.152l.1.124a1.92,1.92,0,0,0,2.083.643,3.11,3.11,0,0,1,.893-.124c1.424.094,1.666.59,2.215,2.494a5.224,5.224,0,0,0,1.119,2.267H656.21V689.5H636.185v-.007h-2.69v-5.31a7.746,7.746,0,0,0-3.51-.873c-2.625,0-4.372,1.581-4.372,4.075s1.829,4.077,4.6,4.077m-.373-6.359a3.627,3.627,0,0,1,1.747.4v4h-1.651c-1.47,0-2.435-.715-2.435-2.172a2.123,2.123,0,0,1,2.339-2.225" transform="translate(1013.395 -796.559)" fill="#002228"/>
    <path id="Path_17208" data-name="Path 17208" d="M690.785,691.37a5.648,5.648,0,0,0,2.573.661c.026,0,.072,0,.113.006.024,0,.047,0,.071,0h.028a6.745,6.745,0,0,1,6.625-.013.8.8,0,0,0,.227.021h.013a6.386,6.386,0,0,0,4.373-1.664l.006.008v-10a1.906,1.906,0,0,0-1.907,1.9v7.283a5.553,5.553,0,0,1-2.337.5h-.148a5.615,5.615,0,0,1-2.472-.509v-9.188a1.907,1.907,0,0,0-1.907,1.9v7.285a5.61,5.61,0,0,1-2.478.509,4.971,4.971,0,0,1-2-.363,3.914,3.914,0,0,0,.109-1.021,4.066,4.066,0,1,0-8.13,0,4.146,4.146,0,0,0,.109,1.034,4.99,4.99,0,0,1-1.985.349,5.6,5.6,0,0,1-2.466-.509V685.3H677.3v4.288a2.761,2.761,0,0,1-1.615.5,2.887,2.887,0,0,1-1.616-.481v-3.58h-1.909v3.58a2.885,2.885,0,0,1-1.614.481,2.759,2.759,0,0,1-1.617-.5v-3.566h-1.909v3.529a5.661,5.661,0,0,1-2.336.517h-.15a5.728,5.728,0,0,1-2.485-.509v-9.188a1.907,1.907,0,0,0-1.908,1.9v7.59a1.239,1.239,0,0,0,.768,1.312,7.529,7.529,0,0,0,3.427.85c.023,0,.065,0,.1.006s.048,0,.075,0h.014l0,0,0,0h.015a6.4,6.4,0,0,0,3.378-.861,4.377,4.377,0,0,0,2.66.861,4.21,4.21,0,0,0,2.582-.846,4.135,4.135,0,0,0,2.544.846,4.987,4.987,0,0,0,2.741-.8,6.783,6.783,0,0,0,3.017.789,1.048,1.048,0,0,0,.135.01c.017,0,.034,0,.05,0h.029a5.687,5.687,0,0,0,2.756-.672,4.156,4.156,0,0,0,6.346,0m-5.359-2.684a2.176,2.176,0,1,1,4.343,0,2.176,2.176,0,0,1-2.193,2.319,2.143,2.143,0,0,1-2.15-2.319" transform="translate(1021.217 -797.142)" fill="#002228"/>
    <path id="Path_17209" data-name="Path 17209" d="M704.438,682.536a1.152,1.152,0,1,0-1.169-1.152,1.143,1.143,0,0,0,1.169,1.152" transform="translate(1030.989 -797.175)" fill="#002228"/>
    <path id="Path_17210" data-name="Path 17210" d="M706.983,682.536a1.152,1.152,0,1,0,0-2.3,1.152,1.152,0,0,0,0,2.3" transform="translate(1031.574 -797.175)" fill="#002228"/>
    <path id="Path_17211" data-name="Path 17211" d="M706.514,691.392h17.745a6.115,6.115,0,0,0,2.822-.671,3.967,3.967,0,0,0,3.187,1.473l.007.007a4.157,4.157,0,1,0-4.072-4.157,4.047,4.047,0,0,0,.109,1.022,5.391,5.391,0,0,1-2.068.364H712.488v-.007H709.8v-5.31a7.744,7.744,0,0,0-3.511-.873c-2.623,0-4.373,1.581-4.373,4.075s1.829,4.077,4.6,4.077m23.725-5.674a2.154,2.154,0,0,1,2.194,2.321,2.177,2.177,0,0,1-2.194,2.318,2.326,2.326,0,0,1,0-4.639m-24.1-.684a3.632,3.632,0,0,1,1.746.4v4h-1.651c-1.469,0-2.436-.715-2.436-2.172a2.123,2.123,0,0,1,2.34-2.225" transform="translate(1030.683 -796.493)" fill="#002228"/>
    <path id="Path_17212" data-name="Path 17212" d="M731.2,691.18a7.523,7.523,0,0,0,3.418.85,1.234,1.234,0,0,0,.137.008l.049,0h18.738a1.216,1.216,0,0,0,.153.009h.015c.05,0,.1-.007.146-.009h.029a6.352,6.352,0,0,0,4.2-1.653l.008.008V680.389a1.906,1.906,0,0,0-1.907,1.9v7.286a5.568,5.568,0,0,1-2.3.5l-.006-.006h-3.539a4.2,4.2,0,0,0,1.922-3.435c0-2.026-1.586-3.113-4.034-3.113a9.36,9.36,0,0,0-4.248,1.072l-.322,1.473,2.58,4.009H735.073l.007-.007h-.256a5.713,5.713,0,0,1-2.485-.509v-9.188a1.906,1.906,0,0,0-1.907,1.9v7.59a1.238,1.238,0,0,0,.767,1.313m14.649-5.266a5.2,5.2,0,0,1,2.319-.546c1.36,0,2.194.628,2.194,1.714a3.253,3.253,0,0,1-2.367,2.713Z" transform="translate(1037.144 -797.142)" fill="#002228"/>
    <path id="Path_17213" data-name="Path 17213" d="M757.517,690.144v-9.765a1.908,1.908,0,0,0-1.907,1.9v9.764a1.907,1.907,0,0,0,1.907-1.9" transform="translate(1042.849 -797.141)" fill="#002228"/>
    <path id="Path_17214" data-name="Path 17214" d="M767.6,682.536a1.152,1.152,0,1,0,0-2.3,1.152,1.152,0,0,0,0,2.3" transform="translate(1045.308 -797.175)" fill="#002228"/>
    <path id="Path_17215" data-name="Path 17215" d="M767.129,692.038h9.739a6.754,6.754,0,0,1,6.635-.011,1.488,1.488,0,0,0,.165.01h.05a6.7,6.7,0,0,0,3.414-.876,6.766,6.766,0,0,0,3.229.865,1.074,1.074,0,0,0,.128.007c.021,0,.038,0,.059,0H816.53a1.527,1.527,0,0,0,.155.007h.013a6.392,6.392,0,0,0,4.373-1.663l.007.007v-10a1.906,1.906,0,0,0-1.907,1.9v7.285a5.61,5.61,0,0,1-2.337.5h-2.219v-1.983q0-3.435-1.857-5.039a7.18,7.18,0,0,0-4.869-1.612,14.611,14.611,0,0,0-2,.146,1.589,1.589,0,0,0,1.645,1.589h.308a5.323,5.323,0,0,1,3.493,1.131A4.524,4.524,0,0,1,812.707,688v2.093H810.1a3.149,3.149,0,0,0,.877-2.281,3.22,3.22,0,0,0-3.413-3.194,3.174,3.174,0,0,0-3.378,3.194,3.124,3.124,0,0,0,.863,2.268H790.568a5.577,5.577,0,0,1-2.47-.511v-5.511a1.907,1.907,0,0,0-1.91,1.9v3.609a6.226,6.226,0,0,1-4.942,0v-5.511a1.906,1.906,0,0,0-1.907,1.9v3.609a5.592,5.592,0,0,1-2.487.511H773.1v-.007h-2.69v-5.31a7.745,7.745,0,0,0-3.511-.873c-2.625,0-4.371,1.581-4.371,4.075s1.829,4.077,4.6,4.077m40.439-5.717a1.612,1.612,0,0,1,1.652,1.728,1.829,1.829,0,0,1-1.652,2.028,1.852,1.852,0,0,1-1.652-2.028,1.609,1.609,0,0,1,1.652-1.728m-40.812-.641a3.639,3.639,0,0,1,1.748.4v4h-1.652c-1.469,0-2.435-.715-2.435-2.172a2.123,2.123,0,0,1,2.339-2.225" transform="translate(1044.417 -797.14)" fill="#002228"/>
    <path id="Path_17216" data-name="Path 17216" d="M765.053,682.536a1.152,1.152,0,1,0-1.169-1.152,1.143,1.143,0,0,0,1.169,1.152" transform="translate(1044.723 -797.175)" fill="#002228"/>
    <path id="Path_17217" data-name="Path 17217" d="M779.027,681.581h-.92c-.689,0-1.011-.292-1.011-.721a.587.587,0,0,1,.607-.606.742.742,0,0,1,.513.19l.687-.737a1.9,1.9,0,0,0-1.33-.539,1.442,1.442,0,0,0-1.521,1.452,1.4,1.4,0,0,0,.364.962h-.767v1.247h3.377Z" transform="translate(1047.389 -797.416)" fill="#002228"/>
    <path id="Path_17218" data-name="Path 17218" d="M782.963,692a1.148,1.148,0,1,0,1.141-1.152A1.128,1.128,0,0,0,782.963,692" transform="translate(1049.046 -794.77)" fill="#002228"/>
    <path id="Path_17219" data-name="Path 17219" d="M780.394,692a1.144,1.144,0,0,0,1.169,1.13,1.141,1.141,0,1,0,0-2.281A1.14,1.14,0,0,0,780.394,692" transform="translate(1048.464 -794.77)" fill="#002228"/>
    <path id="Path_17220" data-name="Path 17220" d="M814.8,690.144v-9.765a1.908,1.908,0,0,0-1.908,1.9v9.764a1.908,1.908,0,0,0,1.908-1.9" transform="translate(1055.828 -797.141)" fill="#002228"/>
    <path id="Path_17221" data-name="Path 17221" d="M629.547,696.876a1.129,1.129,0,0,0,1.133,1.153,1.152,1.152,0,1,0,0-2.3,1.133,1.133,0,0,0-1.133,1.152" transform="translate(1014.286 -793.664)" fill="#002228"/>
    <path id="Path_17222" data-name="Path 17222" d="M626.966,696.876a1.152,1.152,0,1,0,1.17-1.152,1.151,1.151,0,0,0-1.17,1.152" transform="translate(1013.701 -793.664)" fill="#002228"/>
    <path id="Path_17223" data-name="Path 17223" d="M630.211,706.884h5.732a6.7,6.7,0,0,0,3.413-.876,6.774,6.774,0,0,0,3.231.865c.027,0,.077.006.129.008l.057,0h8.706a8.938,8.938,0,0,0,2.464-.335,6.526,6.526,0,0,0,1.91-.832h.006v-6.826a1.907,1.907,0,0,0-1.909,1.9v3.712a6.556,6.556,0,0,1-2.485.416h-8.671a5.6,5.6,0,0,1-2.472-.51V698.9a1.907,1.907,0,0,0-1.909,1.9v3.61a5.519,5.519,0,0,1-2.33.5h-2.59v-5.309a7.732,7.732,0,0,0-3.51-.875c-2.625,0-4.372,1.581-4.372,4.076s1.829,4.076,4.6,4.076m-.373-6.359a3.627,3.627,0,0,1,1.747.4v4h-1.651c-1.47,0-2.435-.715-2.435-2.172a2.123,2.123,0,0,1,2.339-2.225" transform="translate(1013.395 -792.983)" fill="#002228"/>
    <path id="Path_17224" data-name="Path 17224" d="M638.335,708.617a1.119,1.119,0,0,0,1.155-1.13,1.138,1.138,0,0,0-1.155-1.152,1.141,1.141,0,0,0,0,2.282" transform="translate(1016.018 -791.26)" fill="#002228"/>
    <path id="Path_17225" data-name="Path 17225" d="M635.795,706.336a1.141,1.141,0,1,0,0,2.282,1.141,1.141,0,0,0,0-2.282" transform="translate(1015.437 -791.26)" fill="#002228"/>
    <path id="Path_17226" data-name="Path 17226" d="M649.66,695.8a1.159,1.159,0,1,0,0,2.318,1.138,1.138,0,0,0,1.155-1.151,1.152,1.152,0,0,0-1.155-1.168" transform="translate(1018.578 -793.647)" fill="#002228"/>
    <path id="Path_17227" data-name="Path 17227" d="M653.537,706.734a7.5,7.5,0,0,0,3.41.85,1.622,1.622,0,0,0,.17.01h7.4a12.944,12.944,0,0,0,4.153-.656,5.946,5.946,0,0,0,2.518.645c.029,0,.08.006.134.008l.053,0h4.035a6.1,6.1,0,0,0,2.822-.671,3.971,3.971,0,0,0,3.188,1.473l.008.007a4.157,4.157,0,1,0-4.072-4.157,4.033,4.033,0,0,0,.109,1.02,5.371,5.371,0,0,1-2.069.366h-4.146a3.853,3.853,0,0,1-1.725-.408v-.781c-.066-2.413-1.141-3.127-3.992-3.944l-.994-.271,3.223-2.449a1.533,1.533,0,0,0,.27-2.187l-5.769,4.44.2.679a1.552,1.552,0,0,0,1.083,1.065l1.111.3c2.442.7,2.9,1.037,2.967,2.43v.6a7.723,7.723,0,0,1-2.9.525h-7.3l.006-.007h-.254a5.716,5.716,0,0,1-2.488-.51v-9.188a1.907,1.907,0,0,0-1.907,1.9v7.591a1.237,1.237,0,0,0,.766,1.311m27.849-4.812a2.151,2.151,0,0,1,2.193,2.318,2.176,2.176,0,0,1-2.193,2.319,2.326,2.326,0,0,1,0-4.638" transform="translate(1019.547 -793.694)" fill="#002228"/>
    <path id="Path_17228" data-name="Path 17228" d="M698.137,707.488a1.137,1.137,0,0,0-1.155-1.152,1.141,1.141,0,1,0,1.155,1.152" transform="translate(1029.307 -791.26)" fill="#002228"/>
    <path id="Path_17229" data-name="Path 17229" d="M695.583,707.488a1.156,1.156,0,1,0-1.141,1.13,1.135,1.135,0,0,0,1.141-1.13" transform="translate(1028.724 -791.26)" fill="#002228"/>
    <path id="Path_17230" data-name="Path 17230" d="M699.715,699.547a1.908,1.908,0,0,0-1.908,1.9v3.609a5.589,5.589,0,0,1-2.486.511h-3.742v-.007h-2.692v-5a7.77,7.77,0,0,0-3.524-.875c-2.675,0-4.392,1.64-4.392,3.943s1.71,3.9,4.613,3.9h1.4c-.109,1.582-.928,2.333-2.771,2.333a8.218,8.218,0,0,1-.951-.065,1.773,1.773,0,0,0-1.966,1.422,8.8,8.8,0,0,0,2.85.468c2.742,0,4.541-1.3,4.731-4.157h6.463a6.7,6.7,0,0,0,3.414-.876,6.764,6.764,0,0,0,3.239.865c.021,0,.06,0,.092.006s.055.005.084.005h10.594a6.4,6.4,0,0,0,4.373-1.662l.006.007V695.872a1.907,1.907,0,0,0-1.907,1.9v7.285a5.559,5.559,0,0,1-2.335.5h-.91a1.59,1.59,0,0,1-.994-.189,6.152,6.152,0,0,1-1.347-2.83c-.716-2.523-1.455-3.479-3.779-3.53a5.13,5.13,0,0,0-3.188,1.153l.065.087a2.032,2.032,0,0,0,2.164.665,2.9,2.9,0,0,1,.827-.111c1.469.08,1.63.575,2.208,2.48a5,5,0,0,0,1.12,2.281h-6.872a5.582,5.582,0,0,1-2.472-.511Zm-12.737,6.024h-1.7c-1.428,0-2.42-.721-2.42-2.049s.992-2.063,2.389-2.063a3.966,3.966,0,0,1,1.733.4Z" transform="translate(1025.937 -793.631)" fill="#002228"/>
    <path id="Path_17231" data-name="Path 17231" d="M700.979,707.482a1.163,1.163,0,0,0,1.17,1.168,1.15,1.15,0,0,0,1.154-1.168,1.162,1.162,0,0,0-2.324,0" transform="translate(1030.47 -791.261)" fill="#002228"/>
    <path id="Path_17232" data-name="Path 17232" d="M714.993,705.637v-9.765a1.908,1.908,0,0,0-1.907,1.9v9.765a1.907,1.907,0,0,0,1.907-1.9" transform="translate(1033.214 -793.631)" fill="#002228"/>
    <path id="Path_17233" data-name="Path 17233" d="M724.638,698.576a1.156,1.156,0,1,0,1.17-1.152,1.15,1.15,0,0,0-1.17,1.152" transform="translate(1035.831 -793.279)" fill="#002228"/>
    <path id="Path_17234" data-name="Path 17234" d="M727.207,698.576a1.134,1.134,0,0,0,1.141,1.153,1.152,1.152,0,1,0,0-2.3,1.135,1.135,0,0,0-1.141,1.152" transform="translate(1036.413 -793.279)" fill="#002228"/>
    <path id="Path_17235" data-name="Path 17235" d="M731.226,706.854a11.636,11.636,0,0,0,5.191-.978v-7.015a1.908,1.908,0,0,0-1.909,1.9v3.66a7.716,7.716,0,0,1-3.012.467h-6.47q-2.885,0-2.888-2.442a6.844,6.844,0,0,1,.307-1.9l-.007-.009a1.837,1.837,0,0,0-2.149,1.62,8.315,8.315,0,0,0-.044.845c0,2.793,1.7,3.85,4.65,3.85Z" transform="translate(1034.836 -792.953)" fill="#002228"/>
    <path id="Path_17236" data-name="Path 17236" d="M756.339,705.572H740.57l.006-.007h-.254a5.72,5.72,0,0,1-2.487-.51v-9.188a1.907,1.907,0,0,0-1.907,1.9v7.591a1.237,1.237,0,0,0,.766,1.311,7.515,7.515,0,0,0,3.42.85,1.126,1.126,0,0,0,.136.009l.049,0h16.056a6.1,6.1,0,0,0,2.822-.671,3.971,3.971,0,0,0,3.188,1.473l.008.007a4.157,4.157,0,1,0-4.072-4.157,4.037,4.037,0,0,0,.109,1.021,5.375,5.375,0,0,1-2.069.365m6-3.711a2.151,2.151,0,0,1,2.193,2.318,2.176,2.176,0,0,1-2.193,2.319,2.326,2.326,0,0,1,0-4.638" transform="translate(1038.389 -793.632)" fill="#002228"/>
    <path id="Path_17237" data-name="Path 17237" d="M766.941,707.532h1.4c-.11,1.582-.93,2.334-2.772,2.334a8.526,8.526,0,0,1-.949-.066,1.772,1.772,0,0,0-1.966,1.423,8.838,8.838,0,0,0,2.851.465c2.741,0,4.541-1.3,4.73-4.156h2.464a6.785,6.785,0,0,1,6.647-.011v.011h15.076a5.7,5.7,0,0,0,2.755-.671,4.154,4.154,0,0,0,6.346,0,5.677,5.677,0,0,0,2.582.661c.017,0,.05,0,.074.005s.068.005.1.005h.036a6.384,6.384,0,0,0,4.373-1.663l.007.009V695.872a1.908,1.908,0,0,0-1.909,1.9v7.285a5.7,5.7,0,0,1-2.481.51,4.964,4.964,0,0,1-2-.365,3.9,3.9,0,0,0,.111-1.021,4.067,4.067,0,1,0-8.131,0,4.107,4.107,0,0,0,.111,1.036,5.03,5.03,0,0,1-1.989.349h-3.81l-.007-.007h-3.539a4.21,4.21,0,0,0,1.923-3.435c0-2.027-1.587-3.113-4.037-3.113a9.365,9.365,0,0,0-4.248,1.071l-.321,1.473,2.581,4.011h-3.4a5.6,5.6,0,0,1-2.473-.51v-9.188a1.907,1.907,0,0,0-1.907,1.9v7.285a5.515,5.515,0,0,1-2.329.5h-2.592v-5a7.757,7.757,0,0,0-3.524-.876c-2.676,0-4.393,1.641-4.393,3.946s1.711,3.9,4.614,3.9m33.368-5.673a2.152,2.152,0,0,1,2.193,2.32,2.177,2.177,0,0,1-2.193,2.318,2.325,2.325,0,0,1,0-4.638m-17.756-.454a5.208,5.208,0,0,1,2.322-.545c1.36,0,2.193.627,2.193,1.714a3.25,3.25,0,0,1-2.368,2.712Zm-15.949.053a3.973,3.973,0,0,1,1.733.4v3.712h-1.7c-1.425,0-2.42-.722-2.42-2.048s.995-2.064,2.391-2.064" transform="translate(1044.37 -793.631)" fill="#002228"/>
    <path id="Path_17238" data-name="Path 17238" d="M804.386,707.539a1.906,1.906,0,0,0,1.907-1.9v-9.764a1.907,1.907,0,0,0-1.907,1.9Z" transform="translate(1053.9 -793.631)" fill="#002228"/>
    <path id="Path_17239" data-name="Path 17239" d="M808.028,702.927c0,2.3,1.711,3.9,4.614,3.9h1.4c-.11,1.582-.93,2.334-2.772,2.334a7.818,7.818,0,0,1-2.581-.445l-.335,1.808a8.806,8.806,0,0,0,2.851.467c2.932,0,4.745-1.458,4.745-4.719v-6.416a7.756,7.756,0,0,0-3.524-.876c-2.676,0-4.393,1.641-4.393,3.946m4.277-2.174a3.97,3.97,0,0,1,1.733.4v3.712h-1.7c-1.425,0-2.42-.722-2.42-2.048s.995-2.064,2.391-2.064" transform="translate(1054.725 -792.926)" fill="#002228"/>
    <path id="Path_17240" data-name="Path 17240" d="M631.911,718.678a4.382,4.382,0,0,1,1.85.4,1.682,1.682,0,0,0,1.938-.329h.015l.4-.408a6.274,6.274,0,0,0-4.19-1.568,5.7,5.7,0,1,0-.117,11.39,7.358,7.358,0,0,0,4.745-1.69v-4.6h-2.968a1.665,1.665,0,0,0-1.667,1.662h2.684v1.881a4.558,4.558,0,0,1-2.793.825,3.729,3.729,0,0,1-3.743-3.763,3.774,3.774,0,0,1,3.853-3.8" transform="translate(1013.456 -788.895)" fill="#002228"/>
    <path id="Path_17241" data-name="Path 17241" d="M640.54,719.361a4.072,4.072,0,0,0-4.175,4.1,4.117,4.117,0,0,0,4.219,4.127,5.129,5.129,0,0,0,3.509-1.365,1.9,1.9,0,0,0-1.988-.416,3.92,3.92,0,0,1-1.455.256,2.223,2.223,0,0,1-2.348-1.991h6.411v-.6a4.035,4.035,0,0,0-4.174-4.111m2.3,3.514h-4.532a2.15,2.15,0,0,1,2.251-2.026,2.343,2.343,0,0,1,1.63.582,1.825,1.825,0,0,1,.651,1.436Z" transform="translate(1015.831 -788.309)" fill="#002228"/>
    <path id="Path_17242" data-name="Path 17242" d="M649.938,719.367a5.443,5.443,0,0,0-3.268,1.152v-1h-.015a1.915,1.915,0,0,0-1.916,1.912v4.083a1.915,1.915,0,0,0,1.916,1.91h.015v-5.505a3.8,3.8,0,0,1,2.588-.992,1.785,1.785,0,0,1,1.652,1.8v2.787a1.915,1.915,0,0,0,1.915,1.91v-5.244a2.631,2.631,0,0,0-2.887-2.814" transform="translate(1017.728 -788.307)" fill="#002228"/>
    <path id="Path_17243" data-name="Path 17243" d="M657.071,727.586a5.126,5.126,0,0,0,3.511-1.364,1.9,1.9,0,0,0-1.99-.415,3.94,3.94,0,0,1-1.453.255,2.222,2.222,0,0,1-2.348-1.992H661.2v-.6a4.176,4.176,0,0,0-8.35-.015,4.116,4.116,0,0,0,4.218,4.127m-.021-6.738a2.337,2.337,0,0,1,1.63.584,1.822,1.822,0,0,1,.65,1.436v.006H654.8a2.152,2.152,0,0,1,2.252-2.026" transform="translate(1019.566 -788.309)" fill="#002228"/>
    <path id="Path_17244" data-name="Path 17244" d="M665.081,721.244a1.846,1.846,0,0,0,1.323-1.728v-.161A4.346,4.346,0,0,0,663.166,721v-1.488h-.14a1.794,1.794,0,0,0-1.8,1.793v6.118h.139a1.8,1.8,0,0,0,1.8-1.793V722.5a4.483,4.483,0,0,1,1.907-1.261Z" transform="translate(1021.464 -788.31)" fill="#002228"/>
    <path id="Path_17245" data-name="Path 17245" d="M673.776,722.327c0-1.88-1.222-2.961-3.377-2.961a6.971,6.971,0,0,0-3.664,1.029,1.453,1.453,0,0,0,1.82.743,4.258,4.258,0,0,1,1.4-.24c1.251,0,1.9.554,1.9,1.612v.094h-2.7c-1.9,0-3.093.962-3.093,2.465s1.141,2.515,2.968,2.515a4.327,4.327,0,0,0,2.822-1.028v.867a1.923,1.923,0,0,0,1.923-1.917Zm-1.923,3.179a4.087,4.087,0,0,1-2.252.664c-1.023,0-1.63-.444-1.63-1.217s.622-1.219,1.682-1.219h2.2Z" transform="translate(1022.559 -788.307)" fill="#002228"/>
    <path id="Path_17246" data-name="Path 17246" d="M674.157,727.982a1.94,1.94,0,0,0,1.938-1.933v-9.143a1.938,1.938,0,0,0-1.938,1.932Z" transform="translate(1024.393 -788.865)" fill="#002228"/>
    <path id="Path_17247" data-name="Path 17247" d="M689.965,727.982a1.541,1.541,0,0,0,1.425-2.144l-3.26-7.686a2.05,2.05,0,0,0-3.773,0l-3.247,7.686a1.546,1.546,0,0,0,1.428,2.144l1-2.436h5.41l1,2.436Zm-5.724-4.142,2-4.856,2,4.856Z" transform="translate(1025.941 -788.865)" fill="#002228"/>
    <path id="Path_17248" data-name="Path 17248" d="M699.321,725.464v-5.98l-.008.007H699.3a1.916,1.916,0,0,0-1.917,1.911V725a3.781,3.781,0,0,1-2.587.979,1.769,1.769,0,0,1-1.654-1.788v-4.7a1.915,1.915,0,0,0-1.915,1.911v3.34a2.63,2.63,0,0,0,2.887,2.814,5.35,5.35,0,0,0,3.268-1.173V727.4a1.94,1.94,0,0,0,1.938-1.933" transform="translate(1028.261 -788.281)" fill="#002228"/>
    <path id="Path_17249" data-name="Path 17249" d="M705.14,727.4a1.344,1.344,0,0,0-1.381-1.079h-.1a1.293,1.293,0,0,1-1.382-1.422v-3.479h1a1.248,1.248,0,0,0,1.251-1.247v-.284h-2.252V717.69h-.593a1.328,1.328,0,0,0-1.33,1.328v.874a1.251,1.251,0,0,0-1.251,1.249v.284h1.251v3.784a2.547,2.547,0,0,0,2.7,2.757,4.384,4.384,0,0,0,2.076-.555Z" transform="translate(1030.047 -788.688)" fill="#002228"/>
    <path id="Path_17250" data-name="Path 17250" d="M710.637,719.917a5.446,5.446,0,0,0-3.27,1.152v-4.163h-.014a1.915,1.915,0,0,0-1.916,1.91v7.233a1.939,1.939,0,0,0,1.938,1.933v-5.506a3.8,3.8,0,0,1,2.588-.991,1.784,1.784,0,0,1,1.651,1.8v2.786a1.915,1.915,0,0,0,1.909,1.909v-5.249a2.631,2.631,0,0,0-2.886-2.815" transform="translate(1031.481 -788.865)" fill="#002228"/>
    <path id="Path_17251" data-name="Path 17251" d="M712.031,725.936h0Z" transform="translate(1032.975 -786.819)" fill="#002228"/>
    <path id="Path_17252" data-name="Path 17252" d="M717.957,719.361a4.124,4.124,0,1,0,4.423,4.112,4.207,4.207,0,0,0-4.423-4.112m0,6.577a2.468,2.468,0,1,1,2.522-2.473,2.448,2.448,0,0,1-2.522,2.473" transform="translate(1033.321 -788.309)" fill="#002228"/>
    <path id="Path_17253" data-name="Path 17253" d="M724.3,721v-1.488a1.939,1.939,0,0,0-1.938,1.932v5.98a1.938,1.938,0,0,0,1.938-1.932V722.5a4.5,4.5,0,0,1,1.907-1.261h.008a1.844,1.844,0,0,0,1.325-1.729v-.16A4.348,4.348,0,0,0,724.3,721" transform="translate(1035.316 -788.31)" fill="#002228"/>
    <path id="Path_17254" data-name="Path 17254" d="M729.772,725.485v-5.994a1.915,1.915,0,0,0-1.915,1.911V727.4a1.914,1.914,0,0,0,1.915-1.91" transform="translate(1036.56 -788.279)" fill="#002228"/>
    <path id="Path_17255" data-name="Path 17255" d="M728.827,719.011a.987.987,0,1,0-1.06-.984,1.013,1.013,0,0,0,1.06.984" transform="translate(1036.54 -788.834)" fill="#002228"/>
    <path id="Path_17256" data-name="Path 17256" d="M734.743,727.963a4.39,4.39,0,0,0,2.076-.553V727.4a1.345,1.345,0,0,0-1.382-1.079h-.1a1.293,1.293,0,0,1-1.381-1.422v-3.479h1a1.248,1.248,0,0,0,1.25-1.246v-.285h-2.252V717.7h-.666a1.246,1.246,0,0,0-1.249,1.246v.948a1.249,1.249,0,0,0-1.251,1.247v.283h1.251v3.784a2.548,2.548,0,0,0,2.7,2.758" transform="translate(1037.226 -788.685)" fill="#002228"/>
    <path id="Path_17257" data-name="Path 17257" d="M741.33,728.158l3.509-8.685h-.812a1.727,1.727,0,0,0-1.608,1.109l-1.8,4.732-1.916-4.76a1.706,1.706,0,0,0-1.594-1.081h-.871l3.524,8.168-.124.255c-.489.9-.949,1.268-1.7,1.268h-.168a1.717,1.717,0,0,0-1.689,1.051,6.329,6.329,0,0,0,2.112.429c1.463,0,2.464-.78,3.145-2.471Z" transform="translate(1038.426 -788.283)" fill="#002228"/>
    <path id="Path_17258" data-name="Path 17258" d="M751.409,718.2h.015a1.377,1.377,0,0,0,1.353-1.086l.014-.066a5.976,5.976,0,0,0-1.776-.27,2.549,2.549,0,0,0-2.821,2.734v.584a1.175,1.175,0,0,0-1.179,1.174v.364h1.179v5.083a1.3,1.3,0,0,0,1.3,1.3h.635v-6.373h1.141a1.175,1.175,0,0,0,1.179-1.172V720.1h-2.319l-.008-.007v-.555a1.218,1.218,0,0,1,1.288-1.342" transform="translate(1040.901 -788.895)" fill="#002228"/>
    <path id="Path_17259" data-name="Path 17259" d="M756.779,719.361a4.124,4.124,0,1,0,4.423,4.112,4.207,4.207,0,0,0-4.423-4.112m0,6.577a2.468,2.468,0,1,1,2.522-2.473,2.448,2.448,0,0,1-2.522,2.473" transform="translate(1042.118 -788.309)" fill="#002228"/>
    <path id="Path_17260" data-name="Path 17260" d="M763.132,725.633V722.5a4.506,4.506,0,0,1,1.907-1.261h.008a1.845,1.845,0,0,0,1.324-1.729v-.16A4.349,4.349,0,0,0,763.132,721v-1.488h-.14a1.8,1.8,0,0,0-1.8,1.795v6.117h.14a1.793,1.793,0,0,0,1.8-1.793" transform="translate(1044.114 -788.31)" fill="#002228"/>
    <path id="Path_17261" data-name="Path 17261" d="M774.736,726.369a8.4,8.4,0,0,1-2.765-.512,2.076,2.076,0,0,0-2.485.839,9.224,9.224,0,0,0,5.073,1.473c2.809,0,4.585-1.2,4.585-3.418-.057-1.912-1.205-2.517-3.662-3.194l-1.207-.336c-1.754-.475-2.076-.729-2.076-1.312,0-.9.8-1.342,1.995-1.342a7.551,7.551,0,0,1,2.26.4,2.039,2.039,0,0,0,2.4-.97l.016-.029a9.154,9.154,0,0,0-4.519-1.189,5.524,5.524,0,0,0-3.173.839,2.755,2.755,0,0,0-1.22,2.435c.065,1.8,1.11,2.451,3.742,3.114l1.251.32c1.586.4,2.018.621,2.018,1.38,0,1.028-.893,1.5-2.238,1.5" transform="translate(1045.993 -788.894)" fill="#002228"/>
    <path id="Path_17262" data-name="Path 17262" d="M785.018,721.205V725a3.775,3.775,0,0,1-2.588.978,1.767,1.767,0,0,1-1.652-1.787v-4.7h-.2a1.714,1.714,0,0,0-1.718,1.713v3.538a2.631,2.631,0,0,0,2.889,2.814,5.343,5.343,0,0,0,3.268-1.174V727.4h.212a1.714,1.714,0,0,0,1.718-1.712v-6.192h-.213a1.713,1.713,0,0,0-1.718,1.713" transform="translate(1048.117 -788.279)" fill="#002228"/>
    <path id="Path_17263" data-name="Path 17263" d="M791.271,721.223a1.751,1.751,0,0,0,1.272-1.656v-.218A4.346,4.346,0,0,0,789.3,721V719.51h-.212a1.713,1.713,0,0,0-1.717,1.714v6.2h.212a1.713,1.713,0,0,0,1.717-1.713v-3.2a4.459,4.459,0,0,1,1.967-1.277Z" transform="translate(1050.046 -788.311)" fill="#002228"/>
    <path id="Path_17264" data-name="Path 17264" d="M801.094,719.492H800.2a1.712,1.712,0,0,0-1.6,1.086l-1.931,4.894-1.952-4.9a1.73,1.73,0,0,0-1.6-1.085h-.892l3.239,7.91h2.413l3.223-7.91Z" transform="translate(1051.145 -788.28)" fill="#002228"/>
    <path id="Path_17265" data-name="Path 17265" d="M806.907,723.208l.007-.007h-.007Z" transform="translate(1054.471 -787.439)" fill="#002228"/>
    <path id="Path_17266" data-name="Path 17266" d="M804.274,719.361a4.071,4.071,0,0,0-4.174,4.1,4.117,4.117,0,0,0,4.218,4.127,5.132,5.132,0,0,0,3.511-1.365l-1.061-1a3.318,3.318,0,0,1-2.376.838,2.223,2.223,0,0,1-2.348-1.991h6.405v-.6a4.036,4.036,0,0,0-4.175-4.111m2.311,3.514h-4.532a2.151,2.151,0,0,1,2.252-2.026,2.346,2.346,0,0,1,1.63.582,1.828,1.828,0,0,1,.65,1.436Z" transform="translate(1052.929 -788.309)" fill="#002228"/>
    <path id="Path_17267" data-name="Path 17267" d="M816.2,719.474h-.811a1.727,1.727,0,0,0-1.609,1.109l-1.8,4.732-1.916-4.762a1.705,1.705,0,0,0-1.593-1.079H807.6l3.525,8.168L811,727.9c-.49.9-.951,1.269-1.7,1.269h-.167a1.717,1.717,0,0,0-1.689,1.051,6.284,6.284,0,0,0,2.112.431c1.462,0,2.464-.781,3.144-2.471l-.014-.015Z" transform="translate(1054.594 -788.283)" fill="#002228"/>
    <path id="Path_17268" data-name="Path 17268" d="M629.943,734.157a6.972,6.972,0,0,0-3.663,1.029,1.454,1.454,0,0,0,1.821.743,4.214,4.214,0,0,1,1.4-.241c1.251,0,1.9.553,1.9,1.61v.1h-2.7c-1.9,0-3.094.962-3.094,2.464s1.141,2.516,2.968,2.516a4.325,4.325,0,0,0,2.822-1.028v.867h.475a1.444,1.444,0,0,0,1.448-1.443v-3.653c0-1.881-1.22-2.961-3.378-2.961m1.455,6.14a4.089,4.089,0,0,1-2.252.664c-1.023,0-1.63-.444-1.63-1.217s.622-1.219,1.682-1.219h2.2Z" transform="translate(1013.393 -784.956)" fill="#002228"/>
    <path id="Path_17269" data-name="Path 17269" d="M638.905,734.158a5.444,5.444,0,0,0-3.268,1.151v-1h-.015a1.914,1.914,0,0,0-1.916,1.911v4.083a1.915,1.915,0,0,0,1.916,1.91h.015v-5.5a3.794,3.794,0,0,1,2.588-.992,1.785,1.785,0,0,1,1.652,1.8v2.785a1.915,1.915,0,0,0,1.915,1.91v-5.242a2.631,2.631,0,0,0-2.887-2.815" transform="translate(1015.228 -784.956)" fill="#002228"/>
    <path id="Path_17270" data-name="Path 17270" d="M648.252,733.613v2.165a3.42,3.42,0,0,0-2.6-1.079,4.124,4.124,0,0,0,0,8.226,3.447,3.447,0,0,0,2.6-1.1v.933a1.915,1.915,0,0,0,1.916-1.91V731.7a1.915,1.915,0,0,0-1.916,1.91m0,6.592a2.574,2.574,0,0,1-2.208,1.079,2.191,2.191,0,0,1-1.667-.7,2.522,2.522,0,0,1-.651-1.771,2.366,2.366,0,0,1,2.318-2.465,2.583,2.583,0,0,1,2.208,1.079Z" transform="translate(1017.068 -785.512)" fill="#002228"/>
    <path id="Path_17271" data-name="Path 17271" d="M659.73,738.326h2.682v1.882a4.551,4.551,0,0,1-2.792.823,3.728,3.728,0,0,1-3.743-3.762,3.774,3.774,0,0,1,3.853-3.8,4.349,4.349,0,0,1,1.85.4,1.684,1.684,0,0,0,1.937-.329h.015l.4-.409a6.276,6.276,0,0,0-4.19-1.567,5.7,5.7,0,1,0-.117,11.39,7.344,7.344,0,0,0,4.744-1.693v-4.6H661.4a1.663,1.663,0,0,0-1.667,1.662" transform="translate(1019.759 -785.544)" fill="#002228"/>
    <path id="Path_17272" data-name="Path 17272" d="M668.358,734.152a4.071,4.071,0,0,0-4.173,4.1,4.115,4.115,0,0,0,4.217,4.127,5.126,5.126,0,0,0,3.509-1.365,1.9,1.9,0,0,0-1.988-.416,3.913,3.913,0,0,1-1.455.256,2.221,2.221,0,0,1-2.346-1.991h6.411v-.6a4.035,4.035,0,0,0-4.175-4.112m2.3,3.514H666.13a2.149,2.149,0,0,1,2.252-2.027,2.344,2.344,0,0,1,1.629.583,1.829,1.829,0,0,1,.651,1.436Z" transform="translate(1022.134 -784.957)" fill="#002228"/>
    <path id="Path_17273" data-name="Path 17273" d="M676.667,734.146a4.124,4.124,0,1,0,4.423,4.111,4.207,4.207,0,0,0-4.423-4.111m0,6.577a2.448,2.448,0,0,1-2.494-2.473,2.508,2.508,0,0,1,5.015,0,2.451,2.451,0,0,1-2.522,2.473" transform="translate(1023.966 -784.959)" fill="#002228"/>
    <path id="Path_17274" data-name="Path 17274" d="M684.974,737.559l-.884-.233c-1.1-.3-1.369-.474-1.369-.934,0-.583.433-.866,1.3-.866a5.193,5.193,0,0,1,1.542.254,1.489,1.489,0,0,0,1.755-.758l-.008-.007a6.384,6.384,0,0,0-3.255-.869c-1.98,0-3.187.905-3.187,2.421a1.69,1.69,0,0,0,.57,1.342,5.652,5.652,0,0,0,2.049.9l1,.271c.994.3,1.237.473,1.237.932,0,.649-.478.985-1.443.985a5.891,5.891,0,0,1-1.937-.357,1.485,1.485,0,0,0-1.82.67,6.766,6.766,0,0,0,3.7,1.057c2.1,0,3.319-.918,3.319-2.5,0-1.188-.715-1.8-2.572-2.312" transform="translate(1025.837 -784.959)" fill="#002228"/>
    <path id="Path_17275" data-name="Path 17275" d="M692.431,734.14a3.436,3.436,0,0,0-2.6,1.079v-.92a1.939,1.939,0,0,0-1.938,1.933V745.3a1.938,1.938,0,0,0,1.938-1.932v-2.085a3.423,3.423,0,0,0,2.6,1.093v-.007a4.123,4.123,0,0,0,0-8.224m1.272,5.891a2.189,2.189,0,0,1-1.667.7,2.582,2.582,0,0,1-2.208-1.079v-2.786a2.574,2.574,0,0,1,2.208-1.079,2.154,2.154,0,0,1,1.667.714,2.464,2.464,0,0,1,.65,1.758,2.52,2.52,0,0,1-.65,1.772" transform="translate(1027.505 -784.96)" fill="#002228"/>
    <path id="Path_17276" data-name="Path 17276" d="M700.344,734.157a6.971,6.971,0,0,0-3.664,1.029,1.454,1.454,0,0,0,1.821.743,4.215,4.215,0,0,1,1.4-.241c1.251,0,1.9.553,1.9,1.61v.1h-2.7c-1.9,0-3.093.962-3.093,2.464s1.141,2.516,2.968,2.516a4.328,4.328,0,0,0,2.822-1.028v.867h.475a1.445,1.445,0,0,0,1.448-1.443v-3.653c0-1.881-1.222-2.961-3.378-2.961m1.455,6.14a4.089,4.089,0,0,1-2.252.664c-1.023,0-1.63-.444-1.63-1.217s.622-1.219,1.681-1.219h2.2Z" transform="translate(1029.344 -784.956)" fill="#002228"/>
    <path id="Path_17277" data-name="Path 17277" d="M708.186,741.107h-.16a1.292,1.292,0,0,1-1.381-1.422v-3.479h1a1.249,1.249,0,0,0,1.251-1.247v-.284h-2.252v-2.194h-.666a1.248,1.248,0,0,0-1.251,1.245v.949a1.248,1.248,0,0,0-1.25,1.246v.285h1.25v3.784a2.549,2.549,0,0,0,2.7,2.757,4.38,4.38,0,0,0,2.077-.556v-.006l-.015-.066a1.246,1.246,0,0,0-1.3-1.013" transform="translate(1031.037 -785.336)" fill="#002228"/>
    <path id="Path_17278" data-name="Path 17278" d="M709.933,736.193v5.994a1.916,1.916,0,0,0,1.916-1.911v-5.993a1.915,1.915,0,0,0-1.916,1.91" transform="translate(1032.499 -784.928)" fill="#002228"/>
    <path id="Path_17279" data-name="Path 17279" d="M710.9,731.833a.986.986,0,1,0,1.045.985,1.017,1.017,0,0,0-1.045-.985" transform="translate(1032.479 -785.483)" fill="#002228"/>
    <path id="Path_17280" data-name="Path 17280" d="M717.48,734.157a6.97,6.97,0,0,0-3.664,1.029,1.455,1.455,0,0,0,1.821.743,4.215,4.215,0,0,1,1.4-.241c1.251,0,1.9.553,1.9,1.61v.1h-2.7c-1.9,0-3.092.962-3.092,2.464s1.141,2.516,2.967,2.516a4.328,4.328,0,0,0,2.824-1.028v.867h.474a1.444,1.444,0,0,0,1.447-1.443v-3.653c0-1.881-1.22-2.961-3.377-2.961m1.456,6.14a4.1,4.1,0,0,1-2.253.664c-1.023,0-1.63-.444-1.63-1.217s.622-1.219,1.683-1.219h2.2Z" transform="translate(1033.228 -784.956)" fill="#002228"/>
    <path id="Path_17281" data-name="Path 17281" d="M721.246,733.629v9.144a1.939,1.939,0,0,0,1.938-1.932V731.7a1.94,1.94,0,0,0-1.938,1.933" transform="translate(1035.063 -785.514)" fill="#002228"/>
    <path id="Path_17282" data-name="Path 17282" d="M728.226,733.753v9.02a2.056,2.056,0,0,0,2.062-2.056V731.7a2.058,2.058,0,0,0-2.062,2.057" transform="translate(1036.644 -785.514)" fill="#002228"/>
    <path id="Path_17283" data-name="Path 17283" d="M737.287,734.158a5.448,5.448,0,0,0-3.269,1.151v-1H734a1.914,1.914,0,0,0-1.915,1.911v4.083a1.915,1.915,0,0,0,1.915,1.91h.015v-5.5a3.8,3.8,0,0,1,2.589-.992,1.784,1.784,0,0,1,1.651,1.8v2.785a1.916,1.916,0,0,0,1.916,1.91v-5.242a2.631,2.631,0,0,0-2.888-2.815" transform="translate(1037.52 -784.956)" fill="#002228"/>
    <path id="Path_17284" data-name="Path 17284" d="M741.026,734.3v.584a1.174,1.174,0,0,0-1.176,1.174v.364h1.176v5.286a1.093,1.093,0,0,0,1.1,1.093h.842v-6.372H744.1a1.175,1.175,0,0,0,1.177-1.174v-.364h-2.324v-.554a1.216,1.216,0,0,1,1.285-1.342h.118a1.187,1.187,0,0,0,1.215-.92l.052-.241a6.022,6.022,0,0,0-1.778-.269,2.55,2.55,0,0,0-2.822,2.734" transform="translate(1039.278 -785.543)" fill="#002228"/>
    <path id="Path_17285" data-name="Path 17285" d="M749.614,734.146a4.124,4.124,0,1,0,4.423,4.111,4.207,4.207,0,0,0-4.423-4.111m0,6.577a2.448,2.448,0,0,1-2.494-2.473,2.508,2.508,0,0,1,5.015,0,2.451,2.451,0,0,1-2.522,2.473" transform="translate(1040.494 -784.959)" fill="#002228"/>
    <path id="Path_17286" data-name="Path 17286" d="M755.967,735.794v-1.488h-.14a1.8,1.8,0,0,0-1.8,1.794v6.117h.14a1.793,1.793,0,0,0,1.8-1.793v-3.129a4.5,4.5,0,0,1,1.907-1.261h.009a1.846,1.846,0,0,0,1.324-1.728v-.161a4.349,4.349,0,0,0-3.24,1.649" transform="translate(1042.49 -784.959)" fill="#002228"/>
    <path id="Path_17287" data-name="Path 17287" d="M770.164,734.146l.007.015a4.843,4.843,0,0,0-3.349,1.283,2.507,2.507,0,0,0-2.376-1.283,4.621,4.621,0,0,0-3.079,1.233v-1.08a1.939,1.939,0,0,0-1.938,1.932v4.069a1.915,1.915,0,0,0,1.916,1.911h.015v-5.651a3.316,3.316,0,0,1,2.237-.854,1.589,1.589,0,0,1,1.653,1.8v2.784a1.915,1.915,0,0,0,1.916,1.911v-4.542a4.859,4.859,0,0,0-.109-1.109,3.64,3.64,0,0,1,2.361-.852,1.578,1.578,0,0,1,1.637,1.8V740.3a1.915,1.915,0,0,0,1.915,1.91h.016v-5.25a2.612,2.612,0,0,0-2.822-2.815" transform="translate(1043.714 -784.959)" fill="#002228"/>
    <path id="Path_17288" data-name="Path 17288" d="M776.273,734.157a6.969,6.969,0,0,0-3.664,1.029,1.452,1.452,0,0,0,1.82.743,4.216,4.216,0,0,1,1.4-.241c1.251,0,1.9.553,1.9,1.61v.1h-2.7c-1.9,0-3.094.962-3.094,2.464s1.141,2.516,2.969,2.516a4.325,4.325,0,0,0,2.822-1.028v.867h.475a1.444,1.444,0,0,0,1.448-1.443v-3.653c0-1.881-1.22-2.961-3.377-2.961m1.453,6.14a4.086,4.086,0,0,1-2.252.664c-1.023,0-1.63-.444-1.63-1.217s.622-1.219,1.682-1.219h2.2Z" transform="translate(1046.548 -784.956)" fill="#002228"/>
    <path id="Path_17289" data-name="Path 17289" d="M784.048,741.107h-.1a1.294,1.294,0,0,1-1.382-1.422v-3.479h1a1.248,1.248,0,0,0,1.25-1.247v-.284H782.57v-2.194h-.665a1.247,1.247,0,0,0-1.25,1.245v.949a1.25,1.25,0,0,0-1.251,1.246v.285h1.251v3.784a2.548,2.548,0,0,0,2.7,2.757,4.365,4.365,0,0,0,2.075-.556v-.006a1.343,1.343,0,0,0-1.38-1.08" transform="translate(1048.24 -785.336)" fill="#002228"/>
    <path id="Path_17290" data-name="Path 17290" d="M786.831,731.833a.986.986,0,1,0,1.045.985,1.017,1.017,0,0,0-1.045-.985" transform="translate(1049.683 -785.483)" fill="#002228"/>
    <path id="Path_17291" data-name="Path 17291" d="M785.86,736.193v5.994a1.915,1.915,0,0,0,1.915-1.911v-5.993a1.914,1.914,0,0,0-1.915,1.91" transform="translate(1049.703 -784.928)" fill="#002228"/>
    <path id="Path_17292" data-name="Path 17292" d="M793.539,734.146a4.124,4.124,0,1,0,4.423,4.111,4.207,4.207,0,0,0-4.423-4.111m0,6.577a2.449,2.449,0,0,1-2.494-2.473,2.508,2.508,0,0,1,5.016,0,2.451,2.451,0,0,1-2.522,2.473" transform="translate(1050.447 -784.959)" fill="#002228"/>
    <path id="Path_17293" data-name="Path 17293" d="M803.147,734.158a5.449,5.449,0,0,0-3.27,1.151v-1h-.013a1.914,1.914,0,0,0-1.916,1.911v4.083a1.916,1.916,0,0,0,1.916,1.91h.013v-5.5a3.8,3.8,0,0,1,2.59-.992,1.784,1.784,0,0,1,1.651,1.8v2.785a1.915,1.915,0,0,0,1.915,1.91v-5.242a2.63,2.63,0,0,0-2.886-2.815" transform="translate(1052.441 -784.956)" fill="#002228"/>
    <path id="Path_17294" data-name="Path 17294" d="M633.413,638.7a4.043,4.043,0,1,0-4.264-4.035,4.091,4.091,0,0,0,4.264,4.035" transform="translate(1014.196 -808.414)" fill="#002228"/>
    <path id="Path_17295" data-name="Path 17295" d="M641.387,638.7a4.04,4.04,0,1,0,0-8.073,4.038,4.038,0,1,0,0,8.073" transform="translate(1016.029 -808.414)" fill="#002228"/>
    <path id="Path_17296" data-name="Path 17296" d="M660.267,664.116a4.013,4.013,0,1,0,0,8.022,4.015,4.015,0,1,0,0-8.022" transform="translate(1020.307 -800.826)" fill="#002228"/>
    <path id="Path_17297" data-name="Path 17297" d="M652.291,664.116a4.013,4.013,0,1,0,4.151,4.037,4.087,4.087,0,0,0-4.151-4.037" transform="translate(1018.474 -800.826)" fill="#002228"/>
    <path id="Path_17298" data-name="Path 17298" d="M672.312,657.847a4,4,0,0,1-.4.143,12.94,12.94,0,0,1-7.837-.465l-.03-.014V640.2h-1.281a5.556,5.556,0,0,0-5.667,5.44v11.872c-2.511,1.178-3.119,1.794-6.684,1.794h-.935v.172c-.022-.1-.039-.172-.039-.172V643.35c-3.037-1.626-4.623-3.084-9.529-3.084-9.578,0-14.264,4.791-14.264,13.537s4.979,12.4,15.082,12.4h9.742c4.554,0,6.333-1.013,10.073-3.089a12.2,12.2,0,0,0,2.571,1.364,18.235,18.235,0,0,0,12.4-.248l.047-.021a23.162,23.162,0,0,0,3.708-2.1V640.2h-1.288a5.557,5.557,0,0,0-5.667,5.44Zm-29.821,1.459h-2.755c-5.372,0-7.2-1.173-7.2-6.107,0-5.1,1.94-6.654,6.847-6.654,2.394,0,2.262.822,3.1,1.4Z" transform="translate(1013.402 -806.245)" fill="#002228"/>
    <path id="Path_17299" data-name="Path 17299" d="M667.146,630.9a4.066,4.066,0,1,0,4.206,4.091,4.13,4.13,0,0,0-4.206-4.091" transform="translate(1021.839 -808.352)" fill="#002228"/>
    <path id="Path_17300" data-name="Path 17300" d="M729.955,643.564c-8.586,0-12.376,4.655-12.376,13.063a13.8,13.8,0,0,0,.4,3.582c-.167.069-.337.136-.511.2a8.187,8.187,0,0,1-6.3-.135c-.157-.075-.308-.151-.448-.231V657.3c-.23-8.462-1.418-8.576-11.811-11.435l-3.628-.951,8.861-6.583a5.294,5.294,0,0,0,.946-7.71l-18.1,12.1,1.576,6.843,7.129,1.847c8.879,2.47,7.85,1.233,8.079,6.113v2.128a28.784,28.784,0,0,1-10.566,1.848H692.09c-3.328,0-7.532-.617-9.926-1.794v-29.2h-1.286a5.558,5.558,0,0,0-5.668,5.44v24.822c0,2.41.7,3.536,2.805,4.6a31.887,31.887,0,0,0,9.194,2.654,30.944,30.944,0,0,0,4.824.373h.412a48.7,48.7,0,0,0,15.122-2.3q.96.467,1.948.844l.044.017a12.818,12.818,0,0,0,8.836.1l.038-.013a24.4,24.4,0,0,0,2.354-1.012c2.749,3.31,4.439,3.644,9.167,3.644,8.587,0,12.311-4.647,12.311-13.057s-3.725-13.063-12.311-13.063m-.119,19.672c-4.673,0-5.365-1.9-5.365-6.609s.692-6.615,5.365-6.615c4.849,0,5.54,1.9,5.54,6.615s-.692,6.609-5.54,6.609" transform="translate(1024.632 -808.44)" fill="#002228"/>
    <path id="Path_17301" data-name="Path 17301" d="M769.214,664.117a4.011,4.011,0,1,0,0,8.017,4.013,4.013,0,1,0,0-8.017" transform="translate(1044.991 -800.826)" fill="#002228"/>
    <path id="Path_17302" data-name="Path 17302" d="M761.24,664.117a4.011,4.011,0,1,0,4.147,4.035,4.086,4.086,0,0,0-4.147-4.035" transform="translate(1043.158 -800.826)" fill="#002228"/>
    <path id="Path_17303" data-name="Path 17303" d="M784.894,664.117a4.086,4.086,0,0,0-4.264,4.035,4.237,4.237,0,0,0,8.468,0,4.071,4.071,0,0,0-4.2-4.035" transform="translate(1048.518 -800.826)" fill="#002228"/>
    <path id="Path_17304" data-name="Path 17304" d="M812.4,659.709s-.048,1.766-1.148,1.794H808.56c-2.336-2.242-3.276-3.015-4.545-6.583-2.627-8.858-5.313-12.221-13.782-12.389a21.9,21.9,0,0,0-9.74,2.27l1.793,1.653a5.694,5.694,0,0,0,5.753,2.831,10.889,10.889,0,0,1,1.726-.1c4.168.089,5.959.5,8.06,7.173a11.671,11.671,0,0,0,3.156,5.142H783.743a20.972,20.972,0,0,1-8.993-1.794V642.4h-1.284a5.555,5.555,0,0,0-5.666,5.439v11.87a17.537,17.537,0,0,1-8.263,1.794h-.973V645.473c-4.264-2.075-6.164-3.083-10.427-3.083-9.754,0-14.323,5.605-14.323,13.847,0,8.072,4.569,12.162,15.14,12.162h2.66c-.292,3.967-2.911,5.622-7.293,5.937a7.015,7.015,0,0,0-6.644,6.2,31.8,31.8,0,0,0,3.6.166c9.987,0,16.528-2.266,17.23-12.3l1.333-.008c.041,0,.09,0,.126,0a22.252,22.252,0,0,0,11.28-3.073,25.408,25.408,0,0,0,12.072,3.073c.032,0,.076,0,.112,0,.087,0,27.883.008,27.883.008,5.3,0,6.947-1.645,7.684-4.2a9.965,9.965,0,0,0,.355-2.77V630.508a6.815,6.815,0,0,0-6.95,6.671ZM751.614,661.5h-3.771c-5.2,0-7.139-1.117-7.139-5.658,0-4.653,1.942-7.232,7.022-7.232a5.056,5.056,0,0,1,3.887,1.4Z" transform="translate(1037.91 -808.441)" fill="#002228"/>
    <path id="Path_17305" data-name="Path 17305" d="M808.96,637.179V668.4a6.816,6.816,0,0,0,6.95-6.673V630.508a6.815,6.815,0,0,0-6.95,6.671" transform="translate(1054.937 -808.441)" fill="#002228"/>
  </g>
</svg>
